<?xml version="1.0" encoding="utf-8"?>
<!-- Generator: Adobe Illustrator 23.0.0, SVG Export Plug-In . SVG Version: 6.00 Build 0)  -->
<svg version="1.1" id="Layer_1" xmlns="http://www.w3.org/2000/svg" xmlns:xlink="http://www.w3.org/1999/xlink" x="0px" y="0px"
	 viewBox="0 0 100.06 100" style="enable-background:new 0 0 100.06 100;" xml:space="preserve">
<style type="text/css">
	.st0{clip-path:url(#SVGID_2_);fill-rule:evenodd;clip-rule:evenodd;fill:#28323A;}
	.st1{clip-path:url(#SVGID_4_);fill:#FFFFFF;}
	.st2{clip-path:url(#SVGID_6_);fill:#FFFFFF;}
	.st3{clip-path:url(#SVGID_8_);fill:#FFFFFF;}
	.st4{clip-path:url(#SVGID_10_);fill:#28323A;}
	.st5{clip-path:url(#SVGID_12_);fill:#28323A;}
</style>
<g>
	<defs>
		<rect id="SVGID_1_" width="100.06" height="100"/>
	</defs>
	<clipPath id="SVGID_2_">
		<use xlink:href="#SVGID_1_"  style="overflow:visible;"/>
	</clipPath>
	<path class="st0" d="M90,100H10c-5.52,0-10-4.48-10-10V10C0,4.48,4.48,0,10,0h80c5.52,0,10,4.48,10,10v80
		C100,95.52,95.52,100,90,100"/>
</g>
<g>
	<defs>
		<rect id="SVGID_3_" width="100.06" height="100"/>
	</defs>
	<clipPath id="SVGID_4_">
		<use xlink:href="#SVGID_3_"  style="overflow:visible;"/>
	</clipPath>
	<path class="st1" d="M89.64,71.39c0,5.37-0.99,9.46-3.81,12.71c-2.54,2.82-5.93,5.22-10.73,5.65c-7.91,0.57-16.38,0-24.85,0
		c-8.05,0-16.66,0.57-24.85,0c-8.05-0.57-14.26-6.5-14.83-14.82c-0.85-11.01,0.57-24,0-35.86c0-0.28,0.14-0.56,0.42-0.56h22.31
		c0.71,0.42-0.56,1.41-0.99,2.12c-1.55,2.82-2.68,7.06-2.26,11.72c0.57,9.32,8.47,17.37,18.5,18.07c7.34,0.56,13.27-2.96,16.94-7.48
		c3.39-4.09,6.21-11.3,3.67-18.92c-0.28-0.99-0.85-1.98-1.41-2.82c-0.42-0.85-1.13-1.69-1.13-2.68h22.73
		C89.79,50.07,89.64,60.66,89.64,71.39"/>
</g>
<g>
	<defs>
		<rect id="SVGID_5_" width="100.06" height="100"/>
	</defs>
	<clipPath id="SVGID_6_">
		<use xlink:href="#SVGID_5_"  style="overflow:visible;"/>
	</clipPath>
	<path class="st2" d="M34.44,50.64c-0.14-5.08,2.26-9.18,4.66-11.58c2.4-2.4,5.37-3.95,10.03-4.24c8.61-0.57,15.67,5.51,16.52,13.41
		c0.85,8.75-5.22,16.52-13.13,17.51c-1.41,0.14-3.39,0.14-4.8,0C40.79,65.04,34.58,58.69,34.44,50.64"/>
</g>
<g>
	<defs>
		<rect id="SVGID_7_" width="100.06" height="100"/>
	</defs>
	<clipPath id="SVGID_8_">
		<use xlink:href="#SVGID_7_"  style="overflow:visible;"/>
	</clipPath>
	<path class="st3" d="M89.64,36.24H71.01c-1.98,0-4.38,0.42-6.21,0c-1.13-0.28-1.69-1.41-2.68-2.12c-3.11-2.26-7.91-4.24-13.84-3.81
		c-4.38,0.28-7.34,1.83-10.17,4.1c-0.71,0.56-1.84,1.69-2.68,1.98c-1.69,0.42-4.24,0-6.35,0h-18.5c0.28-4.66-0.56-9.18,0.14-13.13
		c0.85-4.66,3.67-7.91,6.5-9.88v16.52h3.11c0,0-0.28-12.71,0.14-18.49c0.42-0.42,1.41-0.28,1.98-0.71c0.42,5.93,0.42,19.2,0.42,19.2
		h3.11V10.83c0-0.28,0-0.57,0.14-0.57h1.98v19.63h3.25V10.26c13.27,0.71,30.36-0.85,43.34,0c5.08,0.28,9.32,2.82,11.72,5.93
		C89.93,20.71,89.79,27.34,89.64,36.24"/>
</g>
<g>
	<defs>
		<rect id="SVGID_9_" width="100.06" height="100"/>
	</defs>
	<clipPath id="SVGID_10_">
		<use xlink:href="#SVGID_9_"  style="overflow:visible;"/>
	</clipPath>
	<path class="st4" d="M50.11,61.79c5.79,0,11.01-4.8,11.29-10.73c0.42-7.91-6.35-12.85-13.13-12c-4.94,0.71-8.61,4.09-9.6,9.03
		C37.12,55.86,43.76,61.79,50.11,61.79"/>
</g>
<g>
	<defs>
		<rect id="SVGID_11_" width="100.06" height="100"/>
	</defs>
	<clipPath id="SVGID_12_">
		<use xlink:href="#SVGID_11_"  style="overflow:visible;"/>
	</clipPath>
	<path class="st5" d="M80.04,16.9h-8.9c-1.27,0-2.26,0.99-2.26,2.26v8.9c0,1.27,0.99,2.26,2.26,2.26h8.9c1.27,0,2.26-0.99,2.26-2.26
		v-8.9C82.44,17.88,81.31,16.9,80.04,16.9"/>
</g>
</svg>
