<?xml version="1.0" encoding="utf-8"?>
<!-- Generator: Adobe Illustrator 24.0.1, SVG Export Plug-In . SVG Version: 6.00 Build 0)  -->
<svg version="1.1" id="Слой_1" xmlns="http://www.w3.org/2000/svg" xmlns:xlink="http://www.w3.org/1999/xlink" x="0px" y="0px"
	 viewBox="0 0 350 150" style="enable-background:new 0 0 350 150;" xml:space="preserve">
<style type="text/css">
	.st0{fill-rule:evenodd;clip-rule:evenodd;fill:#575756;}
	.st1{fill-rule:evenodd;clip-rule:evenodd;fill:#4FAD32;}
	.st2{fill:#4FAD32;}
</style>
<g>
	<path class="st0" d="M312,95.4h-10.5V38.8h14.7c3.1,0,5.7,0.2,7.8,0.5c2.1,0.4,4.2,1.2,6.1,2.5c2.4,1.5,4.2,3.6,5.5,6.1
		c1.3,2.5,2,5.3,2,8.1c0,2.8-0.6,5.5-1.7,8c-1.2,2.5-2.8,4.6-5,6.4c-1.7,1.5-3.8,2.4-6.2,2.9c-2.4,0.5-5.2,0.7-8.3,0.7
		c-0.3,0-0.6,0-1.1-0.1c-0.5-0.1-0.9-0.1-1.1-0.1h-2V95.4L312,95.4z M47.8,38.8v5.5h2.3c4,0,7.8,1,11.2,3.1c3.4,2,6.1,4.8,8.1,8.3
		c2,3.5,3,7.2,3,11.3c0,4.1-1,7.8-3.1,11.3c-2.1,3.5-4.8,6.2-8.3,8.2c-3.5,2-7.2,3-11.3,3h-1.8v6H37.3v-6h-1.8c-4,0-7.8-1-11.3-3
		c-3.5-2-6.2-4.7-8.3-8.2c-2-3.5-3.1-7.2-3.1-11.3c0-4.1,1-7.8,3-11.3c2-3.5,4.7-6.2,8.1-8.3c3.4-2,7.1-3,11.1-3h2.3v-5.5H47.8
		L47.8,38.8z M37.3,79.5V54.2h-1.8c-2.3,0-4.4,0.6-6.3,1.7c-1.9,1.1-3.4,2.7-4.5,4.6c-1.1,2-1.6,4.1-1.6,6.4c0,2.3,0.5,4.4,1.6,6.4
		c1.1,1.9,2.5,3.4,4.4,4.5c1.9,1.1,4,1.7,6.3,1.7H37.3L37.3,79.5z M47.8,79.5h1.8c2.3,0,4.4-0.5,6.3-1.7c1.9-1.1,3.4-2.6,4.4-4.5
		c1.1-1.9,1.6-4,1.6-6.3c0-2.3-0.5-4.4-1.6-6.4c-1.1-2-2.6-3.5-4.5-4.6c-1.9-1.1-4-1.7-6.3-1.7h-1.8V79.5L47.8,79.5z M73.5,95.4
		l23.5-56.6h8.1L129,95.4h-11.6l-6.1-14.7h-20L85,95.4H73.5L73.5,95.4z M95.1,70.6h12.1l-6-17.1L95.1,70.6L95.1,70.6z M133.2,95.4
		V38.8h10.5v24.5l17.6-24.5h12.5l-21.4,27.8l21.4,28.7h-12.5l-17.6-24.8v24.8H133.2L133.2,95.4z M186.8,95.4V49.1h-10.4V38.8h31.3
		v10.2h-10.5v46.3H186.8L186.8,95.4z M312,63.7h1.8c0.2,0,0.5,0,1.1,0.1c0.5,0.1,0.9,0.1,1.2,0.1c2,0,4-0.3,5.8-0.8
		c1.5-0.5,2.8-1.3,3.8-2.6c1-1.3,1.5-2.7,1.5-4.3c0-1.7-0.5-3.2-1.5-4.4c-1-1.2-2.3-2-4-2.4c-1.5-0.3-3.3-0.4-5.4-0.4H312V63.7z"/>
	<rect x="12.5" y="104.9" class="st1" width="324.4" height="1.8"/>
	<path class="st1" d="M293.3,51.4h9.1l-7.5,8.2l0.1,2.1c0,0.6,0,1.2,0,1.8c0,7.8-1.9,15.1-5.9,21.8c-3.9,6.6-9.2,11.9-15.8,15.8
		c-6.7,3.9-13.9,5.8-21.6,5.8c-7.7,0-15-1.9-21.7-5.8c-6.7-3.9-12-9.1-15.9-15.7c-4-6.7-5.9-14-5.9-21.8c0-7.8,1.9-15.2,5.8-22
		c3.9-6.7,9.2-12,15.9-15.9c6.7-3.9,14.1-5.8,21.9-5.8c7.7,0,15,1.9,21.7,5.8c6.7,3.9,12,9.2,15.8,15.9
		C291,44.7,292.4,48,293.3,51.4L293.3,51.4z M235.1,45.8l0.2,1.4l3.5,24.6c0.3,1.7,1.7,2,3.1,1.1l9.9-6.7l8.4,2.9l8,13l3.1-3.3
		l-9.8-12l-8.5-1.5l7.6-5.2c2.7-1.8,4-3.3,0.9-5l-21.1-11.8l-1.1-0.7C236.4,41,234.6,42.7,235.1,45.8L235.1,45.8z M251.7,22
		c-7.5,0-14.4,1.8-20.8,5.5c-0.1,0.1-0.2,0.1-0.3,0.2l0,0c-0.1,0.1-0.2,0.1-0.3,0.2l0,0c-0.1,0.1-0.2,0.1-0.3,0.2v0
		c-0.2,0.1-0.4,0.2-0.6,0.4l0,0c-0.1,0.1-0.2,0.1-0.3,0.2l0,0c-0.1,0.1-0.2,0.1-0.3,0.2l0,0c-0.1,0.1-0.2,0.1-0.3,0.2l0,0
		c-0.1,0.1-0.2,0.1-0.3,0.2l0,0c-0.1,0.1-0.2,0.1-0.2,0.2l-0.1,0c-0.1,0.1-0.1,0.1-0.2,0.2l-0.1,0c-0.1,0-0.1,0.1-0.2,0.1l-0.1,0.1
		c-0.1,0-0.1,0.1-0.2,0.1l-0.1,0.1c-0.1,0-0.1,0.1-0.2,0.1l-0.1,0.1c-0.1,0-0.1,0.1-0.2,0.1c0,0-0.1,0.1-0.1,0.1
		c0,0-0.1,0.1-0.1,0.1c0,0-0.1,0.1-0.1,0.1c0,0-0.1,0.1-0.1,0.1c-0.1,0-0.1,0.1-0.2,0.1l-0.1,0.1c-0.1,0.1-0.1,0.1-0.2,0.2l-0.1,0
		c-0.1,0.1-0.1,0.1-0.2,0.2l-0.1,0.1l0,0l0,0c-3.8,3.1-7,6.9-9.6,11.4c-3.7,6.4-5.5,13.4-5.5,20.9c0,7.5,1.9,14.4,5.6,20.7
		c3.8,6.3,8.8,11.3,15.2,15c6.4,3.7,13.3,5.5,20.6,5.5c7.4,0,14.2-1.8,20.6-5.5c6.3-3.7,11.3-8.7,15.1-15c1.7-3,3.1-6,4-9.2l0,0
		c0.5-1.9,0.9-3.8,1.2-5.8l0,0c0-0.1,0-0.2,0-0.3l0,0c0-0.1,0-0.2,0-0.3l0-0.1c0-0.1,0-0.2,0-0.3l0-0.1c0-0.1,0-0.1,0-0.2
		c0-0.1,0-0.1,0-0.2c0-0.1,0-0.1,0-0.2c0-0.1,0-0.1,0-0.2l0-0.1c0-0.1,0-0.2,0-0.2c0,0,0-0.1,0-0.1c0-0.1,0-0.1,0-0.2l0-0.1
		c0-0.1,0-0.2,0-0.2l0-0.1c0-0.1,0-0.2,0-0.2l0-0.1c0-0.1,0-0.2,0-0.3l0-0.1c0-0.1,0-0.2,0-0.3l0-0.1c0-0.1,0-0.2,0-0.3l0-0.1
		c0-0.1,0-0.2,0-0.3l0-0.1c0-0.1,0-0.2,0-0.3l0,0c0-0.1,0-0.2,0-0.3l0,0c0-0.1,0-0.2,0-0.3c0-0.6,0-1.2,0-1.8l-6.4,7l-6.4-5.8
		c0,0.2,0,0.3,0,0.5c0,0.1,0,0.2,0,0.2l0,0.1c0,0.1,0,0.1,0,0.2l0,0.1c0,0,0,0.1,0,0.1l0,0.1c0,0,0,0.1,0,0.1l0,0.1
		c0,0.1,0,0.1,0,0.2l0,0c0,0.1,0,0.1,0,0.2c0,0,0,0.1,0,0.1c0,0,0,0.1,0,0.1c0,0,0,0.1,0,0.1l0,0.1c0,0,0,0.1,0,0.1c0,0,0,0.1,0,0.1
		c0,0,0,0.1,0,0.1c0,0,0,0.1,0,0.1c0,0,0,0.1,0,0.1c0,0.1,0,0.1,0,0.2c0,0,0,0.1,0,0.1c0,0,0,0.1,0,0.1c0,0,0,0.1,0,0.1
		c0,0,0,0.1,0,0.1c0,0,0,0.1,0,0.1c0,0,0,0.1,0,0.1c0,0,0,0.1,0,0.1c0,0,0,0.1,0,0.1c0,0,0,0.1,0,0.1c0,0,0,0.1,0,0.1
		c0,0.1,0,0.2,0,0.3l0,0.1c0,0,0,0.1,0,0.1l0,0.1c0,0,0,0.1,0,0.1l0,0.1c0,0,0,0.1,0,0.1l0,0.1c0,0.1,0,0.1,0,0.2l0,0
		c0,0.2-0.1,0.5-0.1,0.7l0,0c0,0.1,0,0.1,0,0.2l0,0c0,0.1,0,0.1,0,0.2l0,0c-0.6,3-1.7,5.8-3.3,8.5c-2.6,4.4-6.1,8-10.6,10.6
		c-4.4,2.6-9.3,3.9-14.5,3.9c-5.2,0-10-1.3-14.5-3.9c-4.5-2.6-8-6.1-10.7-10.5c-2.6-4.4-3.9-9.3-3.9-14.5c0-5.3,1.3-10.2,3.9-14.7
		c1.8-3.2,4.2-5.9,7-8.2l0,0c0.1-0.1,0.2-0.2,0.3-0.3l0.1,0c0,0,0.1-0.1,0.1-0.1c0,0,0,0,0.1-0.1c0,0,0.1,0,0.1-0.1l0.1-0.1
		c0,0,0.1-0.1,0.1-0.1c0,0,0.1,0,0.1-0.1l0.1-0.1c0,0,0.1-0.1,0.1-0.1c0,0,0.1,0,0.1-0.1c0,0,0.1,0,0.1-0.1l0.1,0
		c0,0,0.1-0.1,0.1-0.1l0.1,0c0,0,0.1-0.1,0.1-0.1c0,0,0,0,0.1,0c0.1,0,0.1-0.1,0.2-0.1l0.1,0c0,0,0.1-0.1,0.1-0.1l0.1,0
		c0,0,0.1-0.1,0.1-0.1l0.1,0c0.1,0,0.1-0.1,0.2-0.1l0,0c0,0,0.1-0.1,0.1-0.1l0,0c0.1,0,0.1-0.1,0.2-0.1l0,0c0.1,0,0.1-0.1,0.2-0.1
		l0,0c0.1,0,0.1-0.1,0.2-0.1l0,0c0.1,0,0.1-0.1,0.2-0.1c4.5-2.6,9.3-3.9,14.6-3.9c5.2,0,10,1.3,14.5,3.9c4.5,2.6,8,6.2,10.6,10.7
		c0.9,1.5,1.6,3,2.2,4.6h-5.5l13.5,12.4l11.3-12.4h-5.9c-0.9-3.8-2.4-7.4-4.3-10.8c-3.7-6.4-8.7-11.5-15.1-15.2
		C265.9,23.8,259.1,22,251.7,22L251.7,22z M279.1,76c-0.1,0-0.1,0-0.2,0C279,76,279.1,76,279.1,76L279.1,76z M277.9,76
		c-0.2,0-0.3,0-0.5,0C277.6,76,277.8,76,277.9,76z"/>
	<g>
		<path class="st2" d="M21.1,125.1c-0.2,0.8-0.7,1.4-1.3,1.9c-0.6,0.4-1.4,0.6-2.3,0.6c-0.6,0-1.1-0.1-1.6-0.3
			c-0.5-0.2-0.9-0.5-1.2-0.8c-0.3-0.3-0.6-0.7-0.7-1.2c-0.2-0.5-0.3-1-0.3-1.6v-5.4c0-0.5,0.1-1.1,0.3-1.5s0.4-0.9,0.7-1.2
			c0.3-0.3,0.7-0.6,1.2-0.8s1-0.3,1.6-0.3c0.9,0,1.6,0.2,2.3,0.6c0.6,0.4,1.1,1,1.3,1.8l-1.5,0.6c-0.1-0.5-0.4-0.8-0.7-1.1
			c-0.4-0.3-0.8-0.4-1.4-0.4c-0.4,0-0.7,0.1-1,0.2c-0.3,0.1-0.5,0.3-0.7,0.5c-0.2,0.2-0.3,0.5-0.4,0.7c-0.1,0.3-0.1,0.6-0.1,0.9v5.5
			c0,0.3,0,0.6,0.1,0.9c0.1,0.3,0.2,0.5,0.4,0.8c0.2,0.2,0.4,0.4,0.7,0.5c0.3,0.1,0.6,0.2,1,0.2c0.6,0,1-0.1,1.4-0.4
			s0.6-0.7,0.7-1.2L21.1,125.1z"/>
		<path class="st2" d="M26.1,116v11.5h-1.5V116h-3v-1.4H29v1.4H26.1z"/>
		<path class="st2" d="M37.7,118.5c0,0.5-0.1,1-0.2,1.4c-0.1,0.5-0.3,0.9-0.6,1.2c-0.3,0.4-0.7,0.6-1.1,0.9c-0.5,0.2-1,0.3-1.7,0.3
			h-2.2v5.2h-1.5v-12.9h3.7c1.2,0,2.1,0.3,2.8,1C37.4,116.2,37.7,117.2,37.7,118.5z M36.2,118.5c0-0.7-0.2-1.3-0.5-1.8
			s-0.9-0.7-1.7-0.7h-2.1v4.8h2.1c0.4,0,0.8-0.1,1.1-0.2c0.3-0.1,0.5-0.3,0.7-0.5c0.2-0.2,0.3-0.5,0.4-0.8
			C36.1,119.1,36.2,118.8,36.2,118.5z"/>
		<path class="st2" d="M46.4,123.8c0,0.6-0.1,1.1-0.3,1.6c-0.2,0.5-0.4,0.9-0.8,1.2c-0.3,0.3-0.7,0.6-1.2,0.8
			c-0.5,0.2-1,0.3-1.5,0.3c-0.7,0-1.3-0.1-1.7-0.3s-0.9-0.5-1.2-0.9s-0.5-0.8-0.7-1.3c-0.1-0.5-0.2-1-0.2-1.6v-5.2
			c0-0.4,0.1-0.9,0.2-1.3c0.1-0.5,0.4-0.9,0.7-1.2c0.3-0.4,0.7-0.7,1.2-0.9s1.1-0.4,1.8-0.4c0.7,0,1.2,0.1,1.7,0.3
			c0.5,0.2,0.9,0.5,1.2,0.9s0.5,0.8,0.7,1.2s0.2,0.9,0.2,1.4V123.8z M44.9,118.4c0-0.2,0-0.4-0.1-0.7c-0.1-0.3-0.2-0.5-0.4-0.8
			c-0.2-0.2-0.4-0.5-0.7-0.6s-0.7-0.3-1.1-0.3c-0.4,0-0.8,0.1-1.1,0.3c-0.3,0.2-0.5,0.4-0.7,0.6c-0.2,0.2-0.3,0.5-0.4,0.8
			s-0.1,0.5-0.1,0.8l0,5.1c0,0.4,0,0.7,0.1,1c0.1,0.3,0.2,0.6,0.4,0.9c0.2,0.2,0.4,0.4,0.7,0.6s0.6,0.2,1.1,0.2
			c0.3,0,0.6-0.1,0.8-0.2s0.5-0.3,0.7-0.5c0.2-0.2,0.3-0.4,0.5-0.7c0.1-0.3,0.2-0.6,0.2-1V118.4z"/>
		<path class="st2" d="M48.5,127.5v-12.9H50v9.8l0.1,0l1.9-3.9l3.1-6h1.5v12.9H55v-9.8H55l-1.8,3.6l-3.2,6.3H48.5z"/>
		<path class="st2" d="M62.2,116v11.5h-1.5V116h-3v-1.4h7.5v1.4H62.2z"/>
		<path class="st2" d="M66.4,127.5v-12.9h6.9v1.4H68v4.2h4.6v1.4H68v4.3h5.3v1.5H66.4z"/>
		<path class="st2" d="M77.3,121.6c0,1.1-0.1,2-0.2,2.8c-0.1,0.7-0.3,1.3-0.6,1.8c-0.3,0.5-0.6,0.8-1,1.1c-0.4,0.2-0.8,0.5-1.3,0.6
			c-0.1-0.2-0.2-0.4-0.3-0.6c-0.1-0.2-0.2-0.4-0.3-0.6c0.3-0.2,0.6-0.3,0.9-0.5c0.3-0.2,0.5-0.4,0.7-0.7c0.2-0.3,0.3-0.7,0.4-1.2
			c0.1-0.5,0.2-1.2,0.2-2v-7.5h6.7v12.9H81V116h-3.7V121.6z"/>
		<path class="st2" d="M84.9,127.5v-12.9h1.6v5.4h2.1c0.7,0,1.2,0.1,1.7,0.3c0.5,0.2,0.9,0.4,1.2,0.8c0.3,0.3,0.5,0.7,0.7,1.2
			s0.2,0.9,0.2,1.5c0,1.3-0.3,2.2-1,2.9c-0.7,0.7-1.6,1-2.8,1H84.9z M86.5,126.1h2.1c0.8,0,1.4-0.2,1.7-0.6c0.3-0.4,0.5-1,0.5-1.7
			c0-0.3,0-0.6-0.1-0.9s-0.2-0.5-0.4-0.7c-0.2-0.2-0.4-0.4-0.7-0.5s-0.7-0.2-1.1-0.2h-2.1V126.1z"/>
		<path class="st2" d="M99.8,127.5v-5.9h-4.4v5.9h-1.5v-12.9h1.5v5.7h4.4v-5.7h1.6v12.9H99.8z"/>
		<path class="st2" d="M103.9,127.5v-12.9h1.5v5.4h2.1c0.7,0,1.2,0.1,1.7,0.3c0.5,0.2,0.9,0.4,1.2,0.8c0.3,0.3,0.5,0.7,0.7,1.2
			c0.1,0.4,0.2,0.9,0.2,1.5c0,1.3-0.3,2.2-1,2.9s-1.6,1-2.8,1H103.9z M109.8,123.7c0-0.3,0-0.6-0.1-0.9s-0.2-0.5-0.4-0.7
			c-0.2-0.2-0.4-0.4-0.7-0.5s-0.7-0.2-1.1-0.2h-2.1v4.6h2.1c0.8,0,1.4-0.2,1.7-0.6C109.6,125,109.8,124.4,109.8,123.7z M112.5,127.5
			v-12.9h1.6v12.9H112.5z"/>
		<path class="st2" d="M116.4,127.5v-12.9h6.9v1.4h-5.3v4.2h4.6v1.4h-4.6v4.3h5.3v1.5H116.4z"/>
		<path class="st2" d="M132.6,127.5v-12.9h1.5v9.8l0.1,0l1.9-3.9l3.1-6h1.5v12.9h-1.6v-9.8h-0.1l-1.8,3.6l-3.2,6.3H132.6z"/>
		<path class="st2" d="M154.2,123.8c0,0.6-0.1,1.1-0.3,1.6c-0.2,0.5-0.4,0.9-0.8,1.2c-0.3,0.3-0.7,0.6-1.2,0.8
			c-0.5,0.2-1,0.3-1.5,0.3c-0.7,0-1.3-0.1-1.7-0.3s-0.9-0.5-1.2-0.9s-0.5-0.8-0.7-1.3c-0.1-0.5-0.2-1-0.2-1.6v-5.2
			c0-0.4,0.1-0.9,0.2-1.3c0.1-0.5,0.4-0.9,0.7-1.2c0.3-0.4,0.7-0.7,1.2-0.9s1.1-0.4,1.8-0.4c0.7,0,1.2,0.1,1.7,0.3
			c0.5,0.2,0.9,0.5,1.2,0.9s0.5,0.8,0.7,1.2s0.2,0.9,0.2,1.4V123.8z M152.6,118.4c0-0.2,0-0.4-0.1-0.7c-0.1-0.3-0.2-0.5-0.4-0.8
			c-0.2-0.2-0.4-0.5-0.7-0.6s-0.7-0.3-1.1-0.3c-0.4,0-0.8,0.1-1.1,0.3c-0.3,0.2-0.5,0.4-0.7,0.6c-0.2,0.2-0.3,0.5-0.4,0.8
			s-0.1,0.5-0.1,0.8l0,5.1c0,0.4,0,0.7,0.1,1c0.1,0.3,0.2,0.6,0.4,0.9c0.2,0.2,0.4,0.4,0.7,0.6c0.3,0.1,0.6,0.2,1.1,0.2
			c0.3,0,0.6-0.1,0.8-0.2s0.5-0.3,0.7-0.5c0.2-0.2,0.3-0.4,0.5-0.7c0.1-0.3,0.2-0.6,0.2-1V118.4z"/>
		<path class="st2" d="M159.5,116v11.5H158V116h-3v-1.4h7.5v1.4H159.5z"/>
		<path class="st2" d="M163.5,130.1H162v-3.8l0.8-0.1c0.3-0.2,0.5-0.4,0.7-0.7c0.2-0.3,0.3-0.7,0.4-1.2c0.1-0.5,0.2-1.1,0.2-1.8
			c0-0.7,0.1-1.6,0.1-2.6l0.1-5.3h6.9c0,1.9,0,3.9,0,5.8s0,3.9,0,5.8h0.9v4h-1.4v-2.6h-7.2V130.1z M169.7,126.2v-10.2h-3.9l-0.1,4.4
			c0,1.4-0.1,2.6-0.2,3.6s-0.3,1.7-0.7,2.2H169.7z"/>
		<path class="st2" d="M173.7,127.5v-12.9h6.9v1.4h-5.3v4.2h4.6v1.4h-4.6v4.3h5.3v1.5H173.7z"/>
		<path class="st2" d="M184.6,121.6c0,1.1-0.1,2-0.2,2.8c-0.1,0.7-0.3,1.3-0.6,1.8c-0.3,0.5-0.6,0.8-1,1.1c-0.4,0.2-0.8,0.5-1.3,0.6
			c-0.1-0.2-0.2-0.4-0.3-0.6c-0.1-0.2-0.2-0.4-0.3-0.6c0.3-0.2,0.6-0.3,0.9-0.5c0.3-0.2,0.5-0.4,0.7-0.7c0.2-0.3,0.3-0.7,0.4-1.2
			c0.1-0.5,0.2-1.2,0.2-2v-7.5h6.7v12.9h-1.5V116h-3.7V121.6z"/>
		<path class="st2" d="M199.5,123.8c0,0.6-0.1,1.1-0.3,1.6c-0.2,0.5-0.4,0.9-0.8,1.2c-0.3,0.3-0.7,0.6-1.2,0.8
			c-0.5,0.2-1,0.3-1.5,0.3c-0.7,0-1.3-0.1-1.7-0.3c-0.5-0.2-0.9-0.5-1.2-0.9s-0.5-0.8-0.7-1.3c-0.1-0.5-0.2-1-0.2-1.6v-5.2
			c0-0.4,0.1-0.9,0.2-1.3c0.1-0.5,0.4-0.9,0.7-1.2c0.3-0.4,0.7-0.7,1.2-0.9s1.1-0.4,1.8-0.4c0.7,0,1.2,0.1,1.7,0.3
			c0.5,0.2,0.9,0.5,1.2,0.9s0.5,0.8,0.7,1.2s0.2,0.9,0.2,1.4V123.8z M197.9,118.4c0-0.2,0-0.4-0.1-0.7c-0.1-0.3-0.2-0.5-0.4-0.8
			c-0.2-0.2-0.4-0.5-0.7-0.6s-0.7-0.3-1.1-0.3c-0.4,0-0.8,0.1-1.1,0.3c-0.3,0.2-0.5,0.4-0.7,0.6c-0.2,0.2-0.3,0.5-0.4,0.8
			s-0.1,0.5-0.1,0.8l0,5.1c0,0.4,0,0.7,0.1,1c0.1,0.3,0.2,0.6,0.4,0.9c0.2,0.2,0.4,0.4,0.7,0.6s0.6,0.2,1.1,0.2
			c0.3,0,0.6-0.1,0.8-0.2s0.5-0.3,0.7-0.5c0.2-0.2,0.3-0.4,0.5-0.7c0.1-0.3,0.2-0.6,0.2-1V118.4z"/>
		<path class="st2" d="M202.7,114.6v3.8c0,0.5,0,0.9,0.1,1.3c0.1,0.3,0.2,0.6,0.4,0.8c0.2,0.2,0.4,0.4,0.7,0.4
			c0.3,0.1,0.6,0.1,1.1,0.1c0.3,0,0.6,0,1-0.1c0.4-0.1,0.8-0.3,1.1-0.5v-5.8h1.6v12.9H207v-5.8c-0.4,0.2-0.8,0.4-1.2,0.5
			c-0.4,0.1-0.9,0.2-1.3,0.2c-1.1,0-1.9-0.3-2.5-0.9c-0.6-0.6-0.8-1.6-0.8-3v-3.9H202.7z"/>
		<path class="st2" d="M216.9,127.5v-5.9h-4.4v5.9H211v-12.9h1.5v5.7h4.4v-5.7h1.6v12.9H216.9z"/>
		<path class="st2" d="M220.9,127.5v-12.9h1.5v5.4h2.1c0.7,0,1.2,0.1,1.7,0.3c0.5,0.2,0.9,0.4,1.2,0.8c0.3,0.3,0.5,0.7,0.7,1.2
			c0.1,0.4,0.2,0.9,0.2,1.5c0,1.3-0.3,2.2-1,2.9s-1.6,1-2.8,1H220.9z M226.8,123.7c0-0.3,0-0.6-0.1-0.9s-0.2-0.5-0.4-0.7
			c-0.2-0.2-0.4-0.4-0.7-0.5s-0.7-0.2-1.1-0.2h-2.1v4.6h2.1c0.8,0,1.4-0.2,1.7-0.6C226.7,125,226.8,124.4,226.8,123.7z M229.5,127.5
			v-12.9h1.6v12.9H229.5z"/>
		<path class="st2" d="M233.5,127.5v-12.9h6.9v1.4H235v4.2h4.6v1.4H235v4.3h5.3v1.5H233.5z"/>
		<path class="st2" d="M258.1,127.5v-9l-0.1,0l-1,2.5l-1.8,4h-1.1l-1.8-4.1l-1-2.4l-0.1,0v9h-1.5v-12.9h1.6l2.1,4.9l1.2,3h0.1l1.3-3
			l2.1-4.8h1.5v12.9H258.1z"/>
		<path class="st2" d="M268.2,127.5l-0.8-2.9h-4.1l-0.8,2.9h-1.6l3.8-12.9h1.4l3.8,12.9H268.2z M266.1,119.8l-0.7-2.9h-0.1l-0.7,2.8
			l-0.9,3.4h3.4L266.1,119.8z"/>
		<path class="st2" d="M274.1,116v11.5h-1.5V116h-3v-1.4h7.5v1.4H274.1z"/>
		<path class="st2" d="M278.3,127.5v-12.9h6.9v1.4h-5.3v4.2h4.6v1.4h-4.6v4.3h5.3v1.5H278.3z"/>
		<path class="st2" d="M294.2,118.5c0,0.5-0.1,1-0.2,1.4c-0.1,0.5-0.3,0.9-0.6,1.2c-0.3,0.4-0.7,0.6-1.1,0.9c-0.5,0.2-1,0.3-1.7,0.3
			h-2.2v5.2h-1.5v-12.9h3.7c1.2,0,2.1,0.3,2.8,1C293.8,116.2,294.2,117.2,294.2,118.5z M292.6,118.5c0-0.7-0.2-1.3-0.5-1.8
			s-0.9-0.7-1.7-0.7h-2.1v4.8h2.1c0.4,0,0.8-0.1,1.1-0.2c0.3-0.1,0.5-0.3,0.7-0.5c0.2-0.2,0.3-0.5,0.4-0.8
			C292.6,119.1,292.6,118.8,292.6,118.5z"/>
		<path class="st2" d="M295.7,127.5v-12.9h1.5v9.8l0.1,0l1.9-3.9l3.1-6h1.5v12.9h-1.6v-9.8h-0.1l-1.8,3.6l-3.2,6.3H295.7z"/>
		<path class="st2" d="M312.4,127.5l-0.8-2.9h-4.1l-0.8,2.9h-1.6l3.8-12.9h1.4l3.8,12.9H312.4z M310.3,119.8l-0.7-2.9h-0.1l-0.7,2.8
			l-0.9,3.4h3.4L310.3,119.8z"/>
		<path class="st2" d="M317.8,121.6c0,1.1-0.1,2-0.2,2.8c-0.1,0.7-0.3,1.3-0.6,1.8c-0.3,0.5-0.6,0.8-1,1.1c-0.4,0.2-0.8,0.5-1.3,0.6
			c-0.1-0.2-0.2-0.4-0.3-0.6c-0.1-0.2-0.2-0.4-0.3-0.6c0.3-0.2,0.6-0.3,0.9-0.5c0.3-0.2,0.5-0.4,0.7-0.7c0.2-0.3,0.3-0.7,0.4-1.2
			c0.1-0.5,0.2-1.2,0.2-2v-7.5h6.7v12.9h-1.5V116h-3.7V121.6z"/>
		<path class="st2" d="M325.5,127.5v-12.9h1.5v5.4h2.1c0.7,0,1.2,0.1,1.7,0.3c0.5,0.2,0.9,0.4,1.2,0.8c0.3,0.3,0.5,0.7,0.7,1.2
			c0.1,0.4,0.2,0.9,0.2,1.5c0,1.3-0.3,2.2-1,2.9s-1.6,1-2.8,1H325.5z M331.4,123.7c0-0.3,0-0.6-0.1-0.9s-0.2-0.5-0.4-0.7
			c-0.2-0.2-0.4-0.4-0.7-0.5s-0.7-0.2-1.1-0.2h-2.1v4.6h2.1c0.8,0,1.4-0.2,1.7-0.6C331.2,125,331.4,124.4,331.4,123.7z M334.1,127.5
			v-12.9h1.6v12.9H334.1z"/>
	</g>
</g>
</svg>
