<svg id="Layer_1" data-name="Layer 1" xmlns="http://www.w3.org/2000/svg" viewBox="0 0 193.7 285.06"><defs><clipPath id="clip-path" transform="translate(-53.15 -11.81)"><path fill="none" d="M0 0h300v300H0z"/></clipPath><style>.cls-4{fill:none;stroke:#869098;stroke-width:3.75px;stroke-miterlimit:10}</style></defs><g clip-path="url(#clip-path)"><path d="M228.25 76.57h18.6l-15.41 16.92.17 4.42c0 1.26.08 2.53.08 3.79a86.68 86.68 0 01-12.07 44.7 89.77 89.77 0 01-32.52 32.45 89.17 89.17 0 01-89.06 0 89.92 89.92 0 01-32.74-32.39 86.32 86.32 0 01-12.15-44.76 88.71 88.71 0 0112-45.18 89 89 0 0177.51-44.71 87.17 87.17 0 0144.58 12 88.48 88.48 0 0132.53 32.77 89.74 89.74 0 018.5 20m-31.68 50.6h-1 1" transform="translate(-53.15 -11.81)" fill-rule="evenodd" fill="#fff"/><path class="cls-4" d="M80.42 247.67l48.5-43.32M55.24 203.97l88.18-29.38"/><path stroke="#2f353c" stroke-linecap="square" stroke-width="7.5" stroke-miterlimit="10" fill="none" d="M36.72 162.69l60.23 113.69 50.96-118.63"/><path d="M228.25 76.57h18.6l-15.41 16.92.17 4.42c0 1.26.08 2.53.08 3.79a86.68 86.68 0 01-12.07 44.7 89.77 89.77 0 01-32.52 32.45 89.17 89.17 0 01-89.06 0 89.92 89.92 0 01-32.74-32.39 86.32 86.32 0 01-12.15-44.76 88.71 88.71 0 0112-45.18 89 89 0 0177.51-44.71 87.17 87.17 0 0144.58 12 88.48 88.48 0 0132.53 32.77 89.74 89.74 0 018.5 20M108.55 65.1L109 68l7.29 50.47c.52 3.55 3.56 4.13 6.38 2.19L143 106.81l17.33 6 16.5 26.65 6.38-6.72-20.07-24.58-17.57-3.14 15.56-10.63c5.45-3.73 8.26-6.69 1.84-10.3L119.64 60l-2.34-1.38c-6-3.25-9.74.14-8.75 6.52m34.09-48.94a83.34 83.34 0 00-42.72 11.35c-.21.11-.41.23-.61.35l-.59.35-.6.36-1.18.74-.55.36c-.19.11-.37.23-.55.35l-.54.37-.53.36-.08.05-.48.33-.11.07-.45.32-.11.08-.44.31-.17.12-.37.27-.2.14-.36.27-.19.14-.36.27-.24.18-.29.22-.26.2-.26.2-.33.26-.18.14-.4.32-.12.09-.39.32-.15.12h-.06A85.57 85.57 0 0057.5 101.7 81.77 81.77 0 0069 144.24 85.55 85.55 0 00100.21 175a84.8 84.8 0 0084.71.05 85.27 85.27 0 0031-30.89 82.39 82.39 0 008.22-19 82.67 82.67 0 002.48-11.86l.09-.68c0-.21 0-.42.07-.62v-.13l.06-.54v-.52-.72V109.41v-.49a1.64 1.64 0 000-.22v-4.2-.7-.7-1.38c0-1.21 0-2.42-.07-3.62l-13.13 14.41-13-12v5.91a1.09 1.09 0 000 .18v.89a1.8 1.8 0 000 .22v.7a1.64 1.64 0 010 .22v.22a1.8 1.8 0 000 .22v.2c0 .18-.05.36-.07.54V110.38a2 2 0 010 .26v.18a2.7 2.7 0 010 .28v.13l-.05.32v.07c-.09.51-.18 1-.28 1.53 0 .12-.05.25-.07.37 0 .12 0 .25-.07.37a57.5 57.5 0 01-7.1 17.54 59.71 59.71 0 01-21.75 21.7 59.56 59.56 0 01-59.51 0 60 60 0 01-21.9-21.64 57.48 57.48 0 01-8.11-29.89 60.18 60.18 0 0122.32-47l.67-.52.11-.09.3-.23.15-.11.18-.14.16-.12.24-.17.19-.15.17-.12.22-.16.21-.14.19-.14.15-.11.3-.21.13-.09.24-.16.11-.08.32-.21.12-.09.29-.18.11-.08.3-.19.11-.08.34-.21.09-.05.3-.2.08-.05.36-.22h.09a3.79 3.79 0 01.34-.2l.38-.23h.09l.38-.22A59.48 59.48 0 01193 71.55a59.65 59.65 0 014.44 9.54h-11.27l27.7 25.42L237 80.92h-12.1A85.58 85.58 0 00185 27.55a82.67 82.67 0 00-42.39-11.39m53.93 111.01h-1 1" transform="translate(-53.15 -11.81)" fill="#4cae32" fill-rule="evenodd"/></g></svg>