<svg viewBox="0 0 100.06 100" xmlns="http://www.w3.org/2000/svg" xmlns:xlink="http://www.w3.org/1999/xlink"><svg version="1.1" id="facebook" x="0" y="0" viewBox="0 0 100 100" xml:space="preserve" xmlns="http://www.w3.org/2000/svg"><defs><path id="aSVGID_1_" d="M0 0h100v100H0z"/></defs><clipPath id="aSVGID_2_"><use xlink:href="#aSVGID_1_" overflow="visible"/></clipPath><path d="M90 100H10c-5.52 0-10-4.48-10-10V10C0 4.48 4.48 0 10 0h80c5.52 0 10 4.48 10 10v80c0 5.52-4.48 10-10 10" clip-path="url(#aSVGID_2_)" fill-rule="evenodd" clip-rule="evenodd" fill="#28323a"/><defs><path id="aSVGID_3_" d="M0 0h100v100H0z"/></defs><clipPath id="aSVGID_4_"><use xlink:href="#aSVGID_3_" overflow="visible"/></clipPath><path d="M76.57 89.91c6.96 0 13.36-6.25 13.36-13.36V23.41c0-6.96-6.25-13.36-13.36-13.36H23.43c-6.96 0-13.36 6.39-13.36 13.36v53.28c0 6.96 6.25 13.36 13.36 13.36l53.14-.14z" clip-path="url(#aSVGID_4_)" fill="#fff"/><g><defs><path id="aSVGID_5_" d="M0 0h100v100H0z"/></defs><clipPath id="aSVGID_6_"><use xlink:href="#aSVGID_5_" overflow="visible"/></clipPath><path d="M50 90.19V60.07h-9.81V46.71H50v-5.26c0-8.95 6.68-17.05 14.92-17.05h10.8v13.36h-10.8c-1.14 0-2.56 1.42-2.56 3.55v5.26h13.36v13.36H62.36v30.12L50 90.19z" clip-path="url(#aSVGID_6_)" fill="#28323a"/></g></svg><svg version="1.1" id="instagram" x="0" y="0" viewBox="0 0 100.06 100" xml:space="preserve" xmlns="http://www.w3.org/2000/svg"><defs><path id="bSVGID_1_" d="M0 0h100.06v100H0z"/></defs><clipPath id="bSVGID_2_"><use xlink:href="#bSVGID_1_" overflow="visible"/></clipPath><path d="M90 100H10c-5.52 0-10-4.48-10-10V10C0 4.48 4.48 0 10 0h80c5.52 0 10 4.48 10 10v80c0 5.52-4.48 10-10 10" clip-path="url(#bSVGID_2_)" fill-rule="evenodd" clip-rule="evenodd" fill="#28323a"/><defs><path id="bSVGID_3_" d="M0 0h100.06v100H0z"/></defs><clipPath id="bSVGID_4_"><use xlink:href="#bSVGID_3_" overflow="visible"/></clipPath><path d="M89.64 71.39c0 5.37-.99 9.46-3.81 12.71-2.54 2.82-5.93 5.22-10.73 5.65-7.91.57-16.38 0-24.85 0-8.05 0-16.66.57-24.85 0-8.05-.57-14.26-6.5-14.83-14.82-.85-11.01.57-24 0-35.86 0-.28.14-.56.42-.56H33.3c.71.42-.56 1.41-.99 2.12-1.55 2.82-2.68 7.06-2.26 11.72.57 9.32 8.47 17.37 18.5 18.07 7.34.56 13.27-2.96 16.94-7.48 3.39-4.09 6.21-11.3 3.67-18.92-.28-.99-.85-1.98-1.41-2.82-.42-.85-1.13-1.69-1.13-2.68h22.73c.44 11.55.29 22.14.29 32.87" clip-path="url(#bSVGID_4_)" fill="#fff"/><defs><path id="bSVGID_5_" d="M0 0h100.06v100H0z"/></defs><clipPath id="bSVGID_6_"><use xlink:href="#bSVGID_5_" overflow="visible"/></clipPath><path d="M34.44 50.64c-.14-5.08 2.26-9.18 4.66-11.58 2.4-2.4 5.37-3.95 10.03-4.24 8.61-.57 15.67 5.51 16.52 13.41.85 8.75-5.22 16.52-13.13 17.51-1.41.14-3.39.14-4.8 0-6.93-.7-13.14-7.05-13.28-15.1" clip-path="url(#bSVGID_6_)" fill="#fff"/><defs><path id="bSVGID_7_" d="M0 0h100.06v100H0z"/></defs><clipPath id="bSVGID_8_"><use xlink:href="#bSVGID_7_" overflow="visible"/></clipPath><path d="M89.64 36.24H71.01c-1.98 0-4.38.42-6.21 0-1.13-.28-1.69-1.41-2.68-2.12-3.11-2.26-7.91-4.24-13.84-3.81-4.38.28-7.34 1.83-10.17 4.1-.71.56-1.84 1.69-2.68 1.98-1.69.42-4.24 0-6.35 0h-18.5c.28-4.66-.56-9.18.14-13.13.85-4.66 3.67-7.91 6.5-9.88V29.9h3.11s-.28-12.71.14-18.49c.42-.42 1.41-.28 1.98-.71.42 5.93.42 19.2.42 19.2h3.11V10.83c0-.28 0-.57.14-.57h1.98v19.63h3.25V10.26c13.27.71 30.36-.85 43.34 0 5.08.28 9.32 2.82 11.72 5.93 3.52 4.52 3.38 11.15 3.23 20.05" clip-path="url(#bSVGID_8_)" fill="#fff"/><g><defs><path id="bSVGID_9_" d="M0 0h100.06v100H0z"/></defs><clipPath id="bSVGID_10_"><use xlink:href="#bSVGID_9_" overflow="visible"/></clipPath><path d="M50.11 61.79c5.79 0 11.01-4.8 11.29-10.73.42-7.91-6.35-12.85-13.13-12-4.94.71-8.61 4.09-9.6 9.03-1.55 7.77 5.09 13.7 11.44 13.7" clip-path="url(#bSVGID_10_)" fill="#28323a"/></g><g><defs><path id="bSVGID_11_" d="M0 0h100.06v100H0z"/></defs><clipPath id="bSVGID_12_"><use xlink:href="#bSVGID_11_" overflow="visible"/></clipPath><path d="M80.04 16.9h-8.9c-1.27 0-2.26.99-2.26 2.26v8.9c0 1.27.99 2.26 2.26 2.26h8.9c1.27 0 2.26-.99 2.26-2.26v-8.9c.14-1.28-.99-2.26-2.26-2.26" clip-path="url(#bSVGID_12_)" fill="#28323a"/></g></svg><svg viewBox="0 0 100 100" id="telegram" xmlns="http://www.w3.org/2000/svg"><defs><clipPath id="ca"><path fill="none" d="M0 0h100v100H0z"/></clipPath></defs><g clip-path="url(#ca)"><path d="M90 100H10A10 10 0 0 1 0 90V10A10 10 0 0 1 10 0h80a10 10 0 0 1 10 10v80a10 10 0 0 1-10 10" fill="#29a1d5" fill-rule="evenodd"/></g><g clip-path="url(#ca)"><path d="M50 10a40 40 0 1 1-40 40 40 40 0 0 1 40-40" fill="#fff" fill-rule="evenodd"/></g><g clip-path="url(#ca)"><path d="M42.26 59.11l20.51-18.53c.88-.88-.22-1.1-1.32-.44L36.31 56 25.5 52.71c-2.43-.66-2.43-2.43.44-3.53L68.5 32.86c2-.88 3.75.44 3.09 3.53l-7.28 34.18c-.44 2.43-2 3.09-4 2l-11-8.16L44 69.47c-.66.66-1.54.66-1.54 0z" fill="#29a1d5" fill-rule="evenodd"/></g></svg><svg viewBox="0 0 100 100" id="viber" xmlns="http://www.w3.org/2000/svg"><defs><clipPath id="da"><path fill="none" d="M0 0h100v100H0z"/></clipPath></defs><g clip-path="url(#da)"><path d="M90 100H10A10 10 0 0 1 0 90V10A10 10 0 0 1 10 0h80a10 10 0 0 1 10 10v80a10 10 0 0 1-10 10" fill="#675ca8" fill-rule="evenodd"/></g><g clip-path="url(#da)"><path d="M50 10a40 40 0 1 1-40 40 40 40 0 0 1 40-40" fill="#fff" fill-rule="evenodd"/></g><g clip-path="url(#da)"><path d="M52.4 26.29a22.27 22.27 0 0 1 7.33 2.17 19.79 19.79 0 0 1 5.89 4.26 19.43 19.43 0 0 1 4 5.53 26.53 26.53 0 0 1 2.57 10.83c0 1.38 0 1.69-.31 2.08a1.46 1.46 0 0 1-2.37-.22 3.94 3.94 0 0 1-.23-1.63 28.41 28.41 0 0 0-.43-4.11 18.89 18.89 0 0 0-7.3-12.2 19.25 19.25 0 0 0-11.11-3.92c-1.51-.09-1.77-.14-2.11-.4a1.55 1.55 0 0 1 0-2.21c.37-.34.63-.39 1.92-.35.67 0 1.66.1 2.2.16zm-18.08.86a4.94 4.94 0 0 1 1 .47c1.5 1 5.69 6.34 7 9 .79 1.52 1 2.65.8 3.49s-.67 1.37-2.54 2.88a14.39 14.39 0 0 0-1.58 1.4 3.78 3.78 0 0 0-.51 1.79 13.16 13.16 0 0 0 2 5.55 23.63 23.63 0 0 0 4 4.66 21.82 21.82 0 0 0 5.21 3.68c2.32 1.16 3.73 1.45 4.77 1a3.63 3.63 0 0 0 .62-.35c.08-.07.69-.81 1.35-1.64 1.29-1.61 1.58-1.87 2.46-2.17a4.3 4.3 0 0 1 3.4.31c.87.45 2.76 1.63 4 2.48a58.38 58.38 0 0 1 5.52 4.5 3.57 3.57 0 0 1 .42 3.73 17.62 17.62 0 0 1-4.46 5.55A6.25 6.25 0 0 1 63.93 75a5.55 5.55 0 0 1-3-.63A62.75 62.75 0 0 1 34 53.63a58.78 58.78 0 0 1-8.39-15.24c-1.11-3.07-1.17-4.4-.25-6a17.48 17.48 0 0 1 3.3-3.22c2-1.52 3-2.08 3.73-2.24a4.26 4.26 0 0 1 1.93.22zM52.94 32a15.28 15.28 0 0 1 11 6.54 15.77 15.77 0 0 1 2.52 7 13.14 13.14 0 0 1 0 2.93 1.8 1.8 0 0 1-.72.78 1.76 1.76 0 0 1-1.33 0c-.61-.31-.79-.8-.79-2.13a12.59 12.59 0 0 0-1.45-5.87 12 12 0 0 0-4.41-4.59 15.14 15.14 0 0 0-6.08-1.82 2 2 0 0 1-1.49-.56 1.45 1.45 0 0 1-.19-1.81c.41-.63 1-.74 2.93-.45m1.69 6a7.53 7.53 0 0 1 3.77 1.88 7.79 7.79 0 0 1 2.34 4.89c.22 1.41.13 2-.36 2.42a1.56 1.56 0 0 1-1.86 0c-.38-.29-.5-.59-.58-1.4a7.27 7.27 0 0 0-.62-2.54c-.69-1.5-1.92-2.27-4-2.52-1-.12-1.27-.23-1.58-.6a1.47 1.47 0 0 1 .44-2.21 1.69 1.69 0 0 1 1.09-.13 10.38 10.38 0 0 1 1.35.17" fill="#675ca8" fill-rule="evenodd"/></g></svg><svg viewBox="0 0 100 100" id="whatapp" xmlns="http://www.w3.org/2000/svg"><defs><clipPath id="ea"><path fill="none" d="M0 0h100v100H0z"/></clipPath></defs><g clip-path="url(#ea)"><path d="M90 100H10A10 10 0 0 1 0 90V10A10 10 0 0 1 10 0h80a10 10 0 0 1 10 10v80a10 10 0 0 1-10 10" fill="#39de56" fill-rule="evenodd"/></g><g clip-path="url(#ea)"><path d="M50 10.36A39.9 39.9 0 0 1 78.3 22a39.38 39.38 0 0 1 0 56A39.9 39.9 0 0 1 50 89.64a40.34 40.34 0 0 1-19.35-4.94l-2.56-1.4-2.78.88-13.08 4.16 4.13-12.17 1-3-1.66-2.72a39.38 39.38 0 0 1 6-48.45A39.9 39.9 0 0 1 50 10.36" fill="#fff"/></g><g clip-path="url(#ea)"><path d="M38.38 28.38c-1-2.52-2-2.34-2.77-2.36s-1.36 0-2.35 0a4.79 4.79 0 0 0-3.38 1.42 13.83 13.83 0 0 0-4.75 10.15c-.23 6.08 4 12.13 4.61 13s8.1 14 20.58 19.46 12.54 3.77 14.83 3.65 7.49-2.7 8.64-5.6 1.24-5.32.94-5.85-1.1-.86-2.33-1.53-7.23-3.88-8.4-4.34-2-.69-2.83.52-3.37 3.9-4.13 4.7-1.49.87-2.71.21a34.22 34.22 0 0 1-9.79-6.51A37.51 37.51 0 0 1 38 46.48c-.68-1.27 0-1.91.65-2.5s1.3-1.4 2-2.1a8.08 8.08 0 0 0 1.32-2 2.23 2.23 0 0 0 0-2.16c-.29-.63-2.55-6.81-3.49-9.32" fill="#39de56" fill-rule="evenodd"/></g></svg><svg viewBox="0 0 100 100" id="youtube" xmlns="http://www.w3.org/2000/svg"><defs><clipPath id="fa"><path fill="none" d="M0 0h100v100H0z"/></clipPath></defs><g clip-path="url(#fa)"><path d="M90 100H10A10 10 0 0 1 0 90V10A10 10 0 0 1 10 0h80a10 10 0 0 1 10 10v80a10 10 0 0 1-10 10" fill="#28323a" fill-rule="evenodd"/></g><g clip-path="url(#fa)" fill="#fff"><path d="M64.21 37.41v2.24a22.38 22.38 0 0 0 4 0V18a24.41 24.41 0 0 0-4 0v14.34a12.48 12.48 0 0 1 0 2.12 3 3 0 0 1-1.06 1.06c-.95.71-2.13.83-2.36-.59-.24-2.59 0-5.66 0-8.6v-8.49a22.38 22.38 0 0 0-4 0v11.32c0 3.18-.59 8.84 1.06 10.37 2.12 1.77 5.31-1.06 6.37-2.12M32 28.09a48.45 48.45 0 0 1 0 5.78v5.78c1.41.12 3.06 0 4.48 0v-9.2a26 26 0 0 1 0-3.06 8.78 8.78 0 0 1 .59-2.24c1.41-5.07 3.18-10.15 4.48-15.1h-4.46c-.83 3.3-1.77 7-2.6 10.38-.12.35-.12.94-.47 1.3a2.56 2.56 0 0 1-.47-1.3c-.83-3.42-1.77-7-2.71-10.38-1.42 0-3.19-.12-4.48 0 1.77 5.07 3.18 10.38 5.07 15.8.11.83.47 1.54.59 2.24m9.55.24a58.32 58.32 0 0 0 0 6.48 5.23 5.23 0 0 0 2.59 4.37 6.29 6.29 0 0 0 8.49-2c.83-1.88.59-6.13.59-8.84s.36-6.84-.71-8.73-2.94-2.84-5.89-2.61a5.16 5.16 0 0 0-4.36 2.71c-1.07 2-.71 5.31-.71 8.61M47 21.14a1.94 1.94 0 0 1 2 .7c.35.59.12 2.13.12 3.31V32a10.39 10.39 0 0 1-.12 3.29c-.36.94-2.36 1.41-3.07.35-.35-.59-.23-2.36-.23-3.3v-7c0-1.77-.48-4 1.29-4.24"/></g><g clip-path="url(#fa)"><path d="M72.34 45.43H27.65a10.69 10.69 0 0 0-10.73 10.73v23.11A10.7 10.7 0 0 0 27.65 90h44.69a10.69 10.69 0 0 0 10.73-10.73V56.16a10.54 10.54 0 0 0-10.73-10.73" fill="#fff"/></g><g clip-path="url(#fa)" fill="#28323a"><path d="M43.34 74.2a13.54 13.54 0 0 1 0 2.12 3.52 3.52 0 0 1-2.6 1.77c-1.18-.12-.82-2.59-.82-3.89V59.81H36c-.12 0 0 .12 0 .12V76.2c0 2-.12 3.78.59 4.84 1.41 2.24 5 .35 6-.71.23-.23.47-.59.82-.71V82h4V59.93h-4c-.11 4.48-.11 9.67-.11 14.27M22 52.27v4.36c1.65 0 3.31-.12 4.6 0v25.12h4.48c0-8.38-.11-16.87 0-25.24a30.33 30.33 0 0 0 4.6.24v-4.6h-13.8zm40.91 12.26c-.12-1.89-.59-3.42-1.65-4.13a4.1 4.1 0 0 0-4.6 0 8.77 8.77 0 0 1-1.3 1.06v-9.31h-4c-.12 0 0 .12 0 .12v29.59h4v-1.65A4.93 4.93 0 0 0 61 81.63a4.51 4.51 0 0 0 2-3.54c.12-2 0-4.36 0-6.84s0-5.07-.12-6.72m-4.69 14.15c-.94.59-2.12-.24-2.71-.82v-10a15.73 15.73 0 0 1 0-3.3 1.94 1.94 0 0 1 2.6-.71c1.29.71.7 5.43.7 7.43v4.13c0 1.18.12 2.83-.59 3.3m19.7-4.87h-4.13c-.12 1.66.35 3.9-.71 4.6a2.2 2.2 0 0 1-2 .12c-1.77-.71-.59-4.83-1-7h7.67c-.12-3.06.23-6-.24-8.49s-2.71-4-5.89-3.89A5.84 5.84 0 0 0 66 64.06c-.36 2.59-.12 6.48-.12 9.9 0 3.66.35 6.13 2.48 7.55a7.25 7.25 0 0 0 7 .12c2.24-1.18 2.71-3.89 2.6-7.79m-7.31-9.9a2.11 2.11 0 0 1 2.59-.24c.94.71.59 2.72.71 4.13h-3.61c-.24-1.41-.47-3 .24-3.89"/></g></svg></svg>