<svg id="Layer_1" data-name="Layer 1" xmlns="http://www.w3.org/2000/svg" xmlns:xlink="http://www.w3.org/1999/xlink" viewBox="0 0 100 100"><defs><style>.cls-1{fill:none;}.cls-2{clip-path:url(#clip-path);}.cls-3{fill:#675ca8;}.cls-3,.cls-4{fill-rule:evenodd;}.cls-4{fill:#fff;}</style><clipPath id="clip-path" transform="translate(0 0)"><rect class="cls-1" width="100" height="100"/></clipPath></defs><title>icons_viber</title><g class="cls-2"><path class="cls-3" d="M90,100H10A10,10,0,0,1,0,90V10A10,10,0,0,1,10,0H90a10,10,0,0,1,10,10V90a10,10,0,0,1-10,10" transform="translate(0 0)"/></g><g class="cls-2"><path class="cls-4" d="M50,10A40,40,0,1,1,10,50,40,40,0,0,1,50,10" transform="translate(0 0)"/></g><g class="cls-2"><path class="cls-3" d="M52.4,26.29a22.27,22.27,0,0,1,7.33,2.17,19.79,19.79,0,0,1,5.89,4.26,19.43,19.43,0,0,1,4,5.53,26.53,26.53,0,0,1,2.57,10.83c0,1.38,0,1.69-.31,2.08a1.46,1.46,0,0,1-2.37-.22,3.94,3.94,0,0,1-.23-1.63,28.41,28.41,0,0,0-.43-4.11A18.89,18.89,0,0,0,61.55,33a19.25,19.25,0,0,0-11.11-3.92c-1.51-.09-1.77-.14-2.11-.4a1.55,1.55,0,0,1,0-2.21c.37-.34.63-.39,1.92-.35.67,0,1.66.1,2.2.16Zm-18.08.86a4.94,4.94,0,0,1,1,.47c1.5,1,5.69,6.34,7,9,.79,1.52,1,2.65.8,3.49s-.67,1.37-2.54,2.88A14.39,14.39,0,0,0,39,44.39a3.78,3.78,0,0,0-.51,1.79,13.16,13.16,0,0,0,2,5.55,23.63,23.63,0,0,0,4,4.66,21.82,21.82,0,0,0,5.21,3.68c2.32,1.16,3.73,1.45,4.77,1a3.63,3.63,0,0,0,.62-.35c.08-.07.69-.81,1.35-1.64,1.29-1.61,1.58-1.87,2.46-2.17a4.3,4.3,0,0,1,3.4.31c.87.45,2.76,1.63,4,2.48a58.38,58.38,0,0,1,5.52,4.5,3.57,3.57,0,0,1,.42,3.73,17.62,17.62,0,0,1-4.46,5.55A6.25,6.25,0,0,1,63.93,75a5.55,5.55,0,0,1-3-.63A62.75,62.75,0,0,1,34,53.63a58.78,58.78,0,0,1-8.39-15.24c-1.11-3.07-1.17-4.4-.25-6a17.48,17.48,0,0,1,3.3-3.22c2-1.52,3-2.08,3.73-2.24A4.26,4.26,0,0,1,34.32,27.15ZM52.94,32a15.28,15.28,0,0,1,11,6.54,15.77,15.77,0,0,1,2.52,7,13.14,13.14,0,0,1,0,2.93,1.8,1.8,0,0,1-.72.78,1.76,1.76,0,0,1-1.33,0c-.61-.31-.79-.8-.79-2.13a12.59,12.59,0,0,0-1.45-5.87,12,12,0,0,0-4.41-4.59,15.14,15.14,0,0,0-6.08-1.82,2,2,0,0,1-1.49-.56A1.45,1.45,0,0,1,50,32.47c.41-.63,1-.74,2.93-.45m1.69,6a7.53,7.53,0,0,1,3.77,1.88,7.79,7.79,0,0,1,2.34,4.89c.22,1.41.13,2-.36,2.42a1.56,1.56,0,0,1-1.86,0c-.38-.29-.5-.59-.58-1.4a7.27,7.27,0,0,0-.62-2.54c-.69-1.5-1.92-2.27-4-2.52-1-.12-1.27-.23-1.58-.6a1.47,1.47,0,0,1,.44-2.21,1.69,1.69,0,0,1,1.09-.13,10.38,10.38,0,0,1,1.35.17" transform="translate(0 0)"/></g></svg>