<svg id="Layer_1" data-name="Layer 1" xmlns="http://www.w3.org/2000/svg" xmlns:xlink="http://www.w3.org/1999/xlink" viewBox="0 0 100 100"><defs><style>.cls-1{fill:none;}.cls-2{clip-path:url(#clip-path);}.cls-3{fill:#39de56;fill-rule:evenodd;}.cls-4{fill:#fff;}</style><clipPath id="clip-path" transform="translate(0 0)"><rect class="cls-1" width="100" height="100"/></clipPath></defs><title>icons_whatapp</title><g class="cls-2"><path class="cls-3" d="M90,100H10A10,10,0,0,1,0,90V10A10,10,0,0,1,10,0H90a10,10,0,0,1,10,10V90a10,10,0,0,1-10,10" transform="translate(0 0)"/></g><g class="cls-2"><path class="cls-4" d="M50,10.36A39.9,39.9,0,0,1,78.3,22a39.38,39.38,0,0,1,0,56A39.9,39.9,0,0,1,50,89.64,40.34,40.34,0,0,1,30.65,84.7l-2.56-1.4-2.78.88L12.23,88.34l4.13-12.17,1-3-1.66-2.72A39.38,39.38,0,0,1,21.7,22,39.9,39.9,0,0,1,50,10.36" transform="translate(0 0)"/></g><g class="cls-2"><path class="cls-3" d="M38.38,28.38c-1-2.52-2-2.34-2.77-2.36s-1.36,0-2.35,0a4.79,4.79,0,0,0-3.38,1.42,13.83,13.83,0,0,0-4.75,10.15c-.23,6.08,4,12.13,4.61,13s8.1,14,20.58,19.46,12.54,3.77,14.83,3.65S72.64,71,73.79,68.1s1.24-5.32.94-5.85-1.1-.86-2.33-1.53S65.17,56.84,64,56.38s-2-.69-2.83.52-3.37,3.9-4.13,4.7-1.49.87-2.71.21a34.22,34.22,0,0,1-9.79-6.51A37.51,37.51,0,0,1,38,46.48c-.68-1.27,0-1.91.65-2.5s1.3-1.4,2-2.1a8.08,8.08,0,0,0,1.32-2,2.23,2.23,0,0,0,0-2.16c-.29-.63-2.55-6.81-3.49-9.32" transform="translate(0 0)"/></g></svg>