<svg id="Layer_1" data-name="Layer 1" xmlns="http://www.w3.org/2000/svg" xmlns:xlink="http://www.w3.org/1999/xlink" viewBox="0 0 100 100"><defs><style>.cls-1{fill:none;}.cls-2{clip-path:url(#clip-path);}.cls-3,.cls-5{fill:#28323a;}.cls-3{fill-rule:evenodd;}.cls-4{fill:#fff;}</style><clipPath id="clip-path" transform="translate(0 0)"><rect class="cls-1" width="100" height="100"/></clipPath></defs><title>icons_youtube</title><g class="cls-2"><path class="cls-3" d="M90,100H10A10,10,0,0,1,0,90V10A10,10,0,0,1,10,0H90a10,10,0,0,1,10,10V90a10,10,0,0,1-10,10" transform="translate(0 0)"/></g><g class="cls-2"><path class="cls-4" d="M64.21,37.41v2.24a22.38,22.38,0,0,0,4,0V18a24.41,24.41,0,0,0-4,0V32.34a12.48,12.48,0,0,1,0,2.12,3,3,0,0,1-1.06,1.06c-.95.71-2.13.83-2.36-.59-.24-2.59,0-5.66,0-8.6V17.84a22.38,22.38,0,0,0-4,0V29.16c0,3.18-.59,8.84,1.06,10.37,2.12,1.77,5.31-1.06,6.37-2.12" transform="translate(0 0)"/><path class="cls-4" d="M32,28.09a48.45,48.45,0,0,1,0,5.78v5.78c1.41.12,3.06,0,4.48,0v-9.2a26,26,0,0,1,0-3.06,8.78,8.78,0,0,1,.59-2.24c1.41-5.07,3.18-10.15,4.48-15.1H37.09c-.83,3.3-1.77,7-2.6,10.38-.12.35-.12.94-.47,1.3a2.56,2.56,0,0,1-.47-1.3c-.83-3.42-1.77-7-2.71-10.38-1.42,0-3.19-.12-4.48,0,1.77,5.07,3.18,10.38,5.07,15.8.11.83.47,1.54.59,2.24" transform="translate(0 0)"/><path class="cls-4" d="M41.57,28.33a58.32,58.32,0,0,0,0,6.48,5.23,5.23,0,0,0,2.59,4.37,6.29,6.29,0,0,0,8.49-2c.83-1.88.59-6.13.59-8.84s.36-6.84-.71-8.73S49.59,16.77,46.64,17a5.16,5.16,0,0,0-4.36,2.71c-1.07,2-.71,5.31-.71,8.61M47,21.14a1.94,1.94,0,0,1,2,.7c.35.59.12,2.13.12,3.31V32A10.39,10.39,0,0,1,49,35.29c-.36.94-2.36,1.41-3.07.35-.35-.59-.23-2.36-.23-3.3v-7c0-1.77-.48-4,1.29-4.24" transform="translate(0 0)"/></g><g class="cls-2"><path class="cls-4" d="M72.34,45.43H27.65A10.69,10.69,0,0,0,16.92,56.16V79.27A10.7,10.7,0,0,0,27.65,90H72.34A10.69,10.69,0,0,0,83.07,79.27V56.16A10.54,10.54,0,0,0,72.34,45.43" transform="translate(0 0)"/></g><g class="cls-2"><path class="cls-5" d="M43.34,74.2a13.54,13.54,0,0,1,0,2.12,3.52,3.52,0,0,1-2.6,1.77c-1.18-.12-.82-2.59-.82-3.89V59.81H36c-.12,0,0,.12,0,.12V76.2c0,2-.12,3.78.59,4.84,1.41,2.24,5,.35,6-.71.23-.23.47-.59.82-.71V82h4V59.93h-4c-.11,4.48-.11,9.67-.11,14.27" transform="translate(0 0)"/><path class="cls-5" d="M22,52.27v4.36c1.65,0,3.31-.12,4.6,0V81.75h4.48c0-8.38-.11-16.87,0-25.24a30.33,30.33,0,0,0,4.6.24v-4.6H21.88Z" transform="translate(0 0)"/><path class="cls-5" d="M62.91,64.53c-.12-1.89-.59-3.42-1.65-4.13a4.1,4.1,0,0,0-4.6,0,8.77,8.77,0,0,1-1.3,1.06V52.15h-4c-.12,0,0,.12,0,.12V81.86h4V80.21A4.93,4.93,0,0,0,61,81.63a4.51,4.51,0,0,0,2-3.54c.12-2,0-4.36,0-6.84s0-5.07-.12-6.72M58.19,78.68c-.94.59-2.12-.24-2.71-.82v-10a15.73,15.73,0,0,1,0-3.3,1.94,1.94,0,0,1,2.6-.71c1.29.71.7,5.43.7,7.43v4.13c0,1.18.12,2.83-.59,3.3" transform="translate(0 0)"/><path class="cls-5" d="M77.89,73.84H73.76c-.12,1.66.35,3.9-.71,4.6a2.2,2.2,0,0,1-2,.12c-1.77-.71-.59-4.83-1-7h7.67c-.12-3.06.23-6-.24-8.49s-2.71-4-5.89-3.89A5.84,5.84,0,0,0,66,64.06c-.36,2.59-.12,6.48-.12,9.9,0,3.66.35,6.13,2.48,7.55a7.25,7.25,0,0,0,7,.12c2.24-1.18,2.71-3.89,2.6-7.79m-7.31-9.9a2.11,2.11,0,0,1,2.59-.24c.94.71.59,2.72.71,4.13H70.34c-.24-1.41-.47-3,.24-3.89" transform="translate(0 0)"/></g></svg>