<svg id="Layer_1" data-name="Layer 1" xmlns="http://www.w3.org/2000/svg" xmlns:xlink="http://www.w3.org/1999/xlink" viewBox="0 0 172.02 177.3"><defs><style>.cls-1,.cls-3,.cls-4{fill:none;}.cls-2{clip-path:url(#clip-path);}.cls-3{stroke:#869098;stroke-miterlimit:10;stroke-width:3px;}.cls-4{stroke:#2f353c;stroke-linejoin:round;stroke-width:4.2px;}.cls-5{fill:#2f353c;}</style><clipPath id="clip-path" transform="translate(-14.96 -10.82)"><rect class="cls-1" width="200" height="200"/></clipPath></defs><title>icon4</title><g class="cls-2"><path class="cls-3" d="M46.79,63.58c.7-.55,1.05-.84,1.42-1.1q34.35-24.81,68.7-49.62c1.11-.81,1.6-.74,2.42.37q9.17,12.39,18.5,24.67c.91,1.2.71,1.55-.64,2.06Q107.12,51.45,77.06,63a5.23,5.23,0,0,1-2,.55Z" transform="translate(-14.96 -10.82)"/><path class="cls-3" d="M157.9,63.52H89.4a2,2,0,0,1-.07-.23L98.46,60l49.17-17.75c.39-.14.8-.26,1.19-.42.77-.31,1.22-.18,1.54.7,2.45,6.78,4.95,13.55,7.43,20.32A3.59,3.59,0,0,1,157.9,63.52Z" transform="translate(-14.96 -10.82)"/><path class="cls-3" d="M184.85,82.43c0,6,0,12,0,18a1.6,1.6,0,0,1-1.12,1.77,29.27,29.27,0,0,0-3,1.45c-.89.48-1.3.44-1.25-.75.08-1.73,0-3.48,0-5.21.07-9.44-.15-18.87.14-28.31a21,21,0,0,0-.26-3.62A5.09,5.09,0,0,0,173.94,61q-5.22-.07-10.43,0a1.68,1.68,0,0,1-1.78-1.18c-1.92-4.29-1.93-4.3,2.68-4.32,3.9,0,7.8,0,11.7.05,4.28.08,8.67,4.52,8.72,8.84C184.89,70.41,184.85,76.42,184.85,82.43Z" transform="translate(-14.96 -10.82)"/><path class="cls-3" d="M179.54,164.73c0-4.64,0-9.27,0-13.91a1.76,1.76,0,0,1,1.2-1.92,24.76,24.76,0,0,0,3-1.48c.95-.55,1.36-.52,1.36.75,0,8.59,0,17.18,0,25.77a6.22,6.22,0,0,1-3.82,6c-1.41.64-1.63.48-1.64-1Z" transform="translate(-14.96 -10.82)"/><line class="cls-3" x1="31.83" y1="58.97" x2="2.09" y2="91.14"/><line class="cls-3" x1="49.42" y1="58.97" x2="14.04" y2="176.87"/><line class="cls-3" x1="71.94" y1="56.63" x2="56.78" y2="176.87"/><line class="cls-3" x1="99.52" y1="58.97" x2="104.11" y2="172.66"/><line class="cls-3" x1="127.09" y1="56.63" x2="134.44" y2="98.49"/><line class="cls-3" x1="145.56" y1="145.33" x2="152.13" y2="176.87"/></g><g class="cls-2"><path class="cls-4" d="M184.86,106.45v1.9c0,9.7,0,19.4,0,29.09a2.36,2.36,0,0,1-1,2.11c-2.79,2.25-5.51,4.59-8.23,6.92a2.67,2.67,0,0,1-1.83.75c-4.43,0-8.86.08-13.28-.06-8.11-.25-14.51-6.46-15.42-14.79a16.2,16.2,0,0,1,11.92-17,21.78,21.78,0,0,1,5.81-.53c3.32,0,6.64,0,10,.09a4.6,4.6,0,0,0,3.3-1.17C178.87,111.35,181.69,109.08,184.86,106.45Zm-23.5,32.49a8,8,0,1,0-8.15-8C153.12,135.43,156.61,138.86,161.36,138.94Z" transform="translate(-14.96 -10.82)"/><path class="cls-5" d="M20.65,61.3a7,7,0,0,0-.34,2,6.68,6.68,0,0,0,6.59,6.93c2.71.11,5.91.23,9.11.23h.08q31.47,0,62.93-.06l54,0h.85c5.51,0,10.33,0,14.72.14,1.85,0,2.61.83,2.61,2.76q0,12.33,0,24.67v7.45q-2.33,0-4.65,0c-1.84,0-3.68,0-5.55,0a25.27,25.27,0,0,0-12.77,3.45,25.73,25.73,0,0,0,12.42,47.9c1.79,0,3.58,0,5.37,0h5.18c0,2.13,0,4.27,0,6.41,0,6,0,12.19-.06,18.26a2.27,2.27,0,0,1-2.29,2.06c-.39,0-.85,0-1.3,0H22.81a6.18,6.18,0,0,1-1.68-.14,2.48,2.48,0,0,1-2-2.59V71.2a38.69,38.69,0,0,1,.38-6.12,10.09,10.09,0,0,1,1.11-3.78m9-5.9c-1.32,0-2.63,0-3.94.14-7.36.59-9.31,2.46-10.33,8.88A42.74,42.74,0,0,0,15,71.2V179.91c0,.31,0,.63,0,1a6.62,6.62,0,0,0,4.84,6.47,9.31,9.31,0,0,0,3,.35H167.58a16.38,16.38,0,0,0,1.72-.06,6.42,6.42,0,0,0,6.07-6.18c.12-9.38,0-18.77.06-28.16,0-.71-.29-.8-.71-.8h-.39l-8.29,0c-1.78,0-3.55,0-5.32,0a21.53,21.53,0,0,1-10.37-40.06A21,21,0,0,1,161,109.55h0c3.82,0,7.65.07,11.48.07h.38c2.4,0,2.51-.15,2.51-2.47q0-16.94,0-33.87c0-4.17-2.57-6.87-6.72-7q-7.41-.15-14.81-.14H153L36.09,66.3H36c-3,0-6-.1-8.93-.23a2.5,2.5,0,0,1-2.57-2.63A2.45,2.45,0,0,1,27.06,61l1.05,0h.54l11.7,0h.42a2.57,2.57,0,0,0,1.57-.38l6.53-4.69c0-.13-.07-.26-.11-.39l-6,0-3.75,0H37.9c-2.75,0-5.49-.16-8.24-.16" transform="translate(-14.96 -10.82)"/></g></svg>