<svg id="Layer_1" data-name="Layer 1" xmlns="http://www.w3.org/2000/svg" xmlns:xlink="http://www.w3.org/1999/xlink" viewBox="0 0 193.7 285.06"><defs><style>.cls-1,.cls-4,.cls-5{fill:none;}.cls-2{clip-path:url(#clip-path);}.cls-3{fill:#fff;}.cls-3,.cls-6{fill-rule:evenodd;}.cls-4{stroke:#869098;stroke-width:3.75px;}.cls-4,.cls-5{stroke-miterlimit:10;}.cls-5{stroke:#2f353c;stroke-linecap:square;stroke-width:7.5px;}.cls-6{fill:#4cae32;}</style><clipPath id="clip-path" transform="translate(-53.15 -11.81)"><rect class="cls-1" width="300" height="300"/></clipPath></defs><title>marker</title><g class="cls-2"><path class="cls-3" d="M228.25,76.57h18.6L231.44,93.49l.17,4.42c0,1.26.08,2.53.08,3.79a86.68,86.68,0,0,1-12.07,44.7,89.77,89.77,0,0,1-32.52,32.45,89.17,89.17,0,0,1-89.06,0A89.92,89.92,0,0,1,65.3,146.46,86.32,86.32,0,0,1,53.15,101.7a88.71,88.71,0,0,1,12-45.18,89,89,0,0,1,77.51-44.71,87.17,87.17,0,0,1,44.58,12,88.48,88.48,0,0,1,32.53,32.77,89.74,89.74,0,0,1,8.5,20m-29.2,50.68h0m-2.48-.08-1,0,1,0" transform="translate(-53.15 -11.81)"/><line class="cls-4" x1="80.42" y1="247.67" x2="128.92" y2="204.35"/><line class="cls-4" x1="55.24" y1="203.97" x2="143.42" y2="174.59"/><polyline class="cls-5" points="36.72 162.69 96.95 276.38 147.91 157.75"/><path class="cls-6" d="M228.25,76.57h18.6L231.44,93.49l.17,4.42c0,1.26.08,2.53.08,3.79a86.68,86.68,0,0,1-12.07,44.7,89.77,89.77,0,0,1-32.52,32.45,89.17,89.17,0,0,1-89.06,0A89.92,89.92,0,0,1,65.3,146.46,86.32,86.32,0,0,1,53.15,101.7a88.71,88.71,0,0,1,12-45.18,89,89,0,0,1,77.51-44.71,87.17,87.17,0,0,1,44.58,12,88.48,88.48,0,0,1,32.53,32.77,89.74,89.74,0,0,1,8.5,20M108.55,65.1,109,68l7.29,50.47c.52,3.55,3.56,4.13,6.38,2.19L143,106.81l17.33,6,16.5,26.65,6.38-6.72-20.07-24.58-17.57-3.14,15.56-10.63c5.45-3.73,8.26-6.69,1.84-10.3L119.64,60l-2.34-1.38c-6-3.25-9.74.14-8.75,6.52m34.09-48.94A83.34,83.34,0,0,0,99.92,27.55c-.21.11-.41.23-.61.35h0l-.59.35h0l-.6.36-1.18.74h0l-.55.36,0,0c-.19.11-.37.23-.55.35l0,0-.54.37,0,0-.53.36-.08.05-.48.33-.11.07-.45.32-.11.08-.44.31-.17.12-.37.27-.2.14-.36.27-.19.14-.36.27-.24.18-.29.22-.26.2-.26.2-.33.26-.18.14-.4.32-.12.09-.39.32-.15.12-.06,0A85.57,85.57,0,0,0,57.5,101.7,81.77,81.77,0,0,0,69,144.24,85.55,85.55,0,0,0,100.21,175a84.8,84.8,0,0,0,84.71.05,85.27,85.27,0,0,0,31-30.89,82.39,82.39,0,0,0,8.22-19h0a82.67,82.67,0,0,0,2.48-11.86v0l.09-.68v0c0-.21,0-.42.07-.62l0-.13.06-.54,0-.21,0-.31c0-.14,0-.28,0-.41l0-.31c0-.15,0-.3,0-.44l0-.24c0-.16,0-.32,0-.49a1.64,1.64,0,0,0,0-.22c0-.15,0-.3,0-.45V108l0-.48,0-.21,0-.5v-.14l0-.58v-.14l0-.58v-.14l0-.58v-.15c0-.19,0-.38,0-.57v-.13c0-.21,0-.41,0-.62v-.08c0-.21,0-.43,0-.64v-.74c0-1.21,0-2.42-.07-3.62l-13.13,14.41-13-12c0,.35,0,.71,0,1.06,0,.16,0,.32,0,.47v1.12c0,.1,0,.2,0,.3v.64c0,.15,0,.3,0,.45v.18l0,.29v.44l0,.24c0,.08,0,.16,0,.23l0,.22c0,.09,0,.18,0,.27a1.09,1.09,0,0,0,0,.18l0,.34,0,.29,0,.26a1.8,1.8,0,0,0,0,.22l0,.24c0,.07,0,.14,0,.2l0,.26a1.64,1.64,0,0,1,0,.22l0,.22a1.8,1.8,0,0,0,0,.22l0,.2c0,.18-.05.36-.07.54l0,.13,0,.26,0,.18a2,2,0,0,1,0,.26l0,.18a2.7,2.7,0,0,1,0,.28l0,.13-.05.32v.07c-.09.51-.18,1-.28,1.53v0c0,.12-.05.25-.07.37v0c0,.12,0,.25-.07.37v0A57.5,57.5,0,0,1,193,131.43a59.71,59.71,0,0,1-21.75,21.7,59.56,59.56,0,0,1-59.51,0,60,60,0,0,1-21.9-21.64,57.48,57.48,0,0,1-8.11-29.89,60.18,60.18,0,0,1,22.32-47l0,0,.67-.52.11-.09.3-.23.15-.11.18-.14.16-.12.24-.17.19-.15.17-.12.22-.16.21-.14.19-.14.15-.11.3-.21.13-.09.24-.16.11-.08.32-.21.12-.09.29-.18.11-.08.3-.19.11-.08.34-.21.09-.05.3-.2.08-.05.36-.22.09,0a3.79,3.79,0,0,1,.34-.2l0,0,.38-.23.09,0,.38-.22a59.48,59.48,0,0,1,81.53,21.9,59.65,59.65,0,0,1,4.44,9.54H186.17l27.7,25.42L237,80.92H224.9A85.58,85.58,0,0,0,185,27.55a82.67,82.67,0,0,0-42.39-11.39m56.41,111.09h0m-2.48-.08-1,0,1,0" transform="translate(-53.15 -11.81)"/></g></svg>