<svg xmlns="http://www.w3.org/2000/svg" viewBox="0 0 67.7 17.3"><title>Asset 1</title><g id="Layer_2" data-name="Layer 2"><g id="Слой_1" data-name="Слой 1"><path d="M33.5,8.8a.82.82,0,0,0,.5-.5,1.69,1.69,0,0,0,.2-.5V7.5a1.22,1.22,0,0,0-.3-.9l-.6-.5-.1-.2V5.8h-.1l-.4.1-.5-.4h-.4l-.2.1h0l-.1-.1a.76.76,0,0,0-.5-.2h-.2a1.27,1.27,0,0,0-.6-.1L30,5h-.9V4.6l-.4.1c-.1,0-.1.1-.1,0a.31.31,0,0,1-.2-.1c-.2-.1-.3-.2-.5-.2h0l-.2.1-.5-.3h-.4V4.1h-.1c-.3-.1-.4-.2-.5-.2L26,3.8h0l-.2-.2-.1-.1h0l-.2-.1a.76.76,0,0,0-.1-.4l.5-.3.2-.2h.2l.4-.3.2.1h0L28,1.9h.5l.1-.1h.2a1.45,1.45,0,0,1,.6-.1h0l.1-.1.5.2h0l.5-.1.2.2.1.1.1-.2h.4l.2.2h.3l.5.2v.2h.1a.56.56,0,0,0,.6-.5.85.85,0,0,0-.7-.8c-.1,0-.3-.1-.4-.1h0a1.09,1.09,0,0,0-.5-.1,3.54,3.54,0,0,0-.6-.1h-.1c-.2,0-.2,0-.2-.1L30.4.6H28.9l-.2.2h-.6c-.4.1-.4.2-.6.2h-.1v.1a.35.35,0,0,1-.2.1H27l-.5.2-.1-.1-.2.3h-.1a1.69,1.69,0,0,0-.5.2h0c0,.2-.1.2-.2.2h0l-.6.6h0l-.1.6v.1h0A1.54,1.54,0,0,1,25,4h0l.3.3.1.3v.1l.2-.1a1.61,1.61,0,0,0,1.1.3l.2.3h.3v.1h.3l.2.1H28l.5.2h0l.2-.1.1.2.1.1.2-.1v.1l.1.1h.4a.76.76,0,0,1,.5.2h0a5.07,5.07,0,0,0,.9.2l.8.3c.9.4,1.3.7,1.3.9l-.2.4h-.1c-.1,0-.2.1-.3.2l-.1.1h0a.52.52,0,0,0-.4.2h-.3v.3h-.1c-.1,0-.1,0-.2.1H31c-.1,0-.1,0-.3.1h0l-.3.1-.5-.1h-.1l-.2.2-.5.2c-.1,0-.2-.1-.3-.1a.37.37,0,0,0-.3.1c-.1,0-.3-.1-.4-.1a.6.6,0,0,0-.4.1c-.1,0-.1-.1-.2-.1a.6.6,0,0,0-.4.1h-.4V9.2H25.1V9.1H25l.2-.1-1.1-.1V9H24c-.1-.1-.3-.1-.4-.2h-.2a1,1,0,0,0-.5-.4V8.2h0a.1.1,0,0,0,.1-.1c.1-.1.2-.1.2-.2s.2-.2.3-.2h.1V7.6c0-.2-.1-.5-.3-.5s-.2.1-.3.2h-.6l.2.1v.1c0,.1,0,.1-.1.1h-.2v.1a1.34,1.34,0,0,0-.1.5c0,.3.2.5.4.9h0l.4.1.7.5h.1a.77.77,0,0,1,.3.1,1.48,1.48,0,0,0,.7.1h.1l.1.1.1.1.3-.1a1.69,1.69,0,0,0,.5.2.37.37,0,0,0,.3-.1l.4.1h.9l.1-.1.1.1h.7v-.1h.2l.3-.2h.4c.2,0,.3-.1.6-.2h.9l.2-.1.1.1.1.1.4-.3h.3c.1-.1.2-.1.3-.2a1.42,1.42,0,0,0,.6-.2C33.3,9,33.4,8.9,33.5,8.8Z" style="fill:#565655"/><path d="M47.9,4.3h0l.3-.2c0,.1.1.1.2.1h.1l.3-.2.1-.1-.1-.1c-.1-.1-.2-.2-.3-.2s-.2,0-.2.1h-.9l-.7.2H46l.1-1.3V2.3l.1-.3h0l-.1-.3V1.6h0L46,1.2l.1-.2h0V.4l-.2.1V.2l-.4.1V.1h-.6l.1.3c-.1,0-.1.1-.2.1s-.2.2-.2.3V1l.3,1-.1.2h0l.1.8-.1.3h0l.1.4v.1l-.1.1.1.1h-.5l-1.9.2h-.2a.76.76,0,0,1-.4-.1L41.7,4l-.1-.1-.2.2H40.2c-.1,0-.1-.1-.2-.1s-.1,0-.2.1H39l-.4.1-.2-.1h-.2a4.33,4.33,0,0,1,.1-.5l.1-.1V3.4l-.1-.3c.1-.7.2-1.1.2-1.4V1.5h0V1.4a1.75,1.75,0,0,1,.1-.5V.8L38.2.6V.3h-.1c-.1,0-.2-.1-.4-.2V0l-.4.3h0l-.1.5v.4l.1.7-.1.4h0v.6h-.1l.1.3v.2a3.09,3.09,0,0,1-.2.8l-.4.2h-.1v.7l.3.2v.6l.1,1.4.1.2v.4h0c-.1.1-.2.2-.2.3s.1.3.4.6v.8a.66.66,0,0,0,.4.5h0l.1-.1h.1V9.5h0l-.1-.3V8.8h0l-.1-.3.1-.8-.1-.3.1-.3h0l.2-.5.1-.4V5.5c0-.3.1-.4.2-.4a4.33,4.33,0,0,1,.5-.1h.1l.2.1V5c.1,0,.1.1.2.1h.3l.1-.1.1.1h0l.4-.1.3.2.1.1.1-.3h.2a.76.76,0,0,0,.4-.1.5.5,0,0,1,.6,0h.1l.8.1.7-.2h.5a.6.6,0,0,0,.4-.1h.2l.1-.1h0l.1.1.2-.1V6.1l-.1.1v.1l.1.2-.2.4h0V8.4h0v.4l.1.3v.1h0l.1.3v.7c0,.2.1.3.2.6v.4l.2-.2a.76.76,0,0,0,.2-.4h0c.1-.1.1-.1.1-.2a.6.6,0,0,0-.1-.4V9.6h0l-.1-.1.1-.2V9.1h0l.1-.8V7.5h.1l.1-.1V7.3a1,1,0,0,0-.1-.3V6.9a.37.37,0,0,0,.1-.3V6.5l-.1-.2a1.48,1.48,0,0,0,.1-.7V5.4a.76.76,0,0,0,.2-.5V4.8h0l.2-.2.2.1.1.1.2-.3.6-.2.1.1h.1l.3-.2Z" style="fill:#565655"/><path d="M22.4,9.7a1,1,0,0,0-.3.1c-.1,0-.1.1-.2.1h-.2l-.1.2-.5-.1-.5-.5c-.1-.1-.1-.2-.2-.4l-.2-.3a10.26,10.26,0,0,1-.4-1.4l-.1-.3a.1.1,0,0,1,.1-.1c0-.1-.1-.2-.1-.3a1.27,1.27,0,0,0-.1-.6h.2l-.3-.4V5.2h0l-.1-.3.1-.1h.2l-.1-.2c0-.1-.1-.1-.2-.2l-.1-.1a.35.35,0,0,0,.1-.2h0V3.6l.1-.3h0V3l.1-.2h0V2.6c.1,0,.1,0,.2-.1a.37.37,0,0,0,.1-.3V1.9l.1-.1.1-.1V1.6q-.3-.15-.3-.3h0l-.3-.2h-.1l-.2.2h0a.76.76,0,0,0-.1.4V2c0,.2-.1.3-.1.4l-.1.2h0l-.2.5a.9.9,0,0,0-.1.5l-.4.7H18v.2a.32.32,0,0,0-.3.3h0v.1h0V5l-.2.1h0l-.2.2-.1.1h-.1v.2l-.1.1h0l-.1.1-.3.1h0l-.1.2h-.1l-.1.3-.6.4h-.1v.1c0,.1,0,.2-.1.2h-.2l-.1.1H15v.1a.76.76,0,0,0-.4.2h0v.1h-.1c-.1,0-.2.1-.3.2l-.2.1h0l-.1.2L13.7,8h-.1v.3a.1.1,0,0,0-.1.1h-.3v.1h-.5c0-.1-.1-.2-.1-.3a.76.76,0,0,0-.2-.5.37.37,0,0,1-.1-.3V7.2l.1-.1.1-.1-.2-.2.1-.1h0c0-.4,0-.6.1-.7V5.8a.31.31,0,0,1-.1-.2V5.4c0-.4.1-.9.2-1.7h0a1.69,1.69,0,0,1-.2-.5V2.9l.2-1,.1-.2h0V1.6A1,1,0,0,0,12,.9L11.6.8l.2.2v.1h-.3l.2.3-.1.3h0l.1.7-.1.5h0l.1.3-.3.4h0v.2h0l.1.3-.1.3v.1l.1.2v.1l-.2.2v.1l.1.2.1.9v.3h0l.1.3-.1.3h0l.1.8.1.2.2,1.1.1.1v.3h.1a.75.75,0,0,1,.3.3V10h.7L13,9.9h.4l-.1-.1V9.6l.2-.1c.1,0,.2-.1.3-.2l.2-.2.6-.4L16,7.6l.2-.3.3-.1h0l.2-.2c.1,0,.2-.2.2-.3l.3-.3.2-.1a1.76,1.76,0,0,0,.4-.5l.3-.2.3-.5c0,.1.1.3.1.4v.7l.3,1.7.2.4.1.4h0l.2.3.1.5h0l.3.3h0l.1.1a2.34,2.34,0,0,0,.7.7h.1l.1-.1.1.1a.84.84,0,0,0,.7.2h.2l.3-.2.2.1h.1l.1-.2.4-.1h.1l.1-.5V9.8h-.1Z" style="fill:#565655"/><path d="M64.9,9.8h0A2.3,2.3,0,0,0,66,9.4c.2-.1.4-.3.7-.5l.5-.7.1-.2h0V7.7l-.2-.1h-.2c-.1.1-.1.1-.3.1h-.1v.2c-.1.1-.3.2-.4.4h0v.1c-.1,0-.2.1-.3.2h-.1c-.1,0-.2.1-.3.2l-.1.1H65l-.9.1-.4-.1-.6-.2-.5-.4-.3-.1L62,7.9l-.6-.3L61,7.3h0l-.4-.1V7.1h0L60,6.8l-.4-.4-.1-.3V6h-.2V5.9L59,5.7h0l.5-.2a4.38,4.38,0,0,0,.9-.5l.5-.1h0l.3-.2.3-.1h0l.4-.3.5-.3.3-.4.2-.1H63v.1h.2V3.5a.52.52,0,0,1,.4-.2h.1l-.1-.2a.1.1,0,0,0-.1-.1c.1-.1.1-.1.2-.1s.1-.1.2-.1a.77.77,0,0,0,.2-.3l.2-.2h0l.1-.5h.2V1.5c.1-.1.2-.3.3-.4h0V1h.2L65,.6a.66.66,0,0,0-.5-.4c-.1,0-.2,0-.2.1a.37.37,0,0,0-.1.3V.7c-.2.3-.4.4-.4.6s-.1.2-.1.3c-.2.1-.2.3-.3.5h-.3v.2c-.1,0-.1.1-.2.2s-.3.2-.3.4V3h-.2l-.2.3h-.3v.1h-.2v.2h-.2a1.38,1.38,0,0,0-.3.4l-.5.2h-.1c-.1,0-.2,0-.2.1h0a.86.86,0,0,0-.6.3h-.2v.1h-.2a.86.86,0,0,0-.6.3h-.4l-.1.1h-.2l-.1.1c-.1,0-.3-.1-.4-.1h-.2l-.2-.4h0l-.1-.1.1-.2h0V3.8l.1-.4h0L57,2.6l.2-.3V2.2L57.1,2l.1-.1V1.8l-.1-.2V1.1L56.8.7h0a.6.6,0,0,0-.4-.1.37.37,0,0,0-.3.1h0a1.85,1.85,0,0,0-.2.7.75.75,0,0,0,.1.5v.3h0V3.4h-.1v.4H56v.1h0v.2a.37.37,0,0,0,.1.3l-.1.1h0l.1.5v.4h0l.1.1-.1.1v.1l.1.3-.1.1h0c0,.1,0,.1.1.2V7a.76.76,0,0,0-.1.4.37.37,0,0,0,.1.3h0l-.1.1V8c0,.1.1.2.1.3l-.2.2-.1.1.1.1c-.1.1-.1.1-.1.2v.2h-.1l.1.2c0,.1-.1.1-.1.2v.2l-.1.7v.1l.3.2.1.1.1-.1a8.79,8.79,0,0,0,.5-1V9.5l.1-.3h0V8.8a.76.76,0,0,1,.1-.4h0c0-.1-.1-.2-.2-.3a2.54,2.54,0,0,0,.2-.7h0L56.8,7h.1l-.1-.7.1-.1h.2v.1l.3-.1h0v.1h.3c.1,0,.2.1.3.2h0c.1.1.2.1.3.2a1.38,1.38,0,0,0,.4.3c.1.1.2.2.3.2l.2.2.3.2.1.1.1.1.1-.1v.2l.3.1v.2h.2l.1.2v.1h.5l.2.2h0l.3.1h.1l.2.3.1.1H62l.1.1h0l.4.1.2.2h.4l.2.1h.2l.4-.1h.3l.2-.1.5.3Z" style="fill:#565655"/><path d="M53.2,5.8h-.3l-.2-.1V5.6h-.1a.37.37,0,0,1-.3.1c-.1,0-.1,0-.3-.1h-.1l-.2.1h-.2c0-.1,0-.1-.1-.1H51l.1-.1h-.6l-.3-.1h-.1v.1h-.2c-.1-.1-.1-.1-.2-.1h0l-.4.2h-.1L49,5.5l-.1-.1v.2h-.1V6h0l.2.4v.1h.2l.2.1h.2a.37.37,0,0,1,.3-.1.31.31,0,0,1,.2.1h0l.6-.1h.1l.4-.1h.5l.1-.1.5.1h0l.7-.2.3.1h.1l.2-.3.1-.1-.1-.1Z" style="fill:#565655"/><path d="M8.9,4.6c.1-.1.1-.1.2-.1h.1V4.3l.2-.2c.1-.1.1-.2.2-.3l.1-.2V3.4l-.3-.5V2.6l-.6-.4L8.7,2V1.9H8.5a.76.76,0,0,0-.4-.2V1.4l-.4.2A.91.91,0,0,0,7,1.3H7V1.1H6.6L6.3.9H5.7V.8H5.6A3.09,3.09,0,0,1,4.8.6H4.7A.37.37,0,0,0,4.4.5H4.2L4.1.6H4c-.1,0-.1,0-.1-.1h0L3.3.4H2C1.9.3,1.9.3,1.8.3H1.6L1.5.2H1.4L1.3.3H1A.6.6,0,0,1,.6.4C.4.4.3.4.2.6h0L0,.8H0V.9a.91.91,0,0,0,.3.7l.1.1.1-.1a.49.49,0,0,1,.3-.1H1l.3-.2h.2V1.2l.2-.1.1.1h.1l.2-.1.3.2h.2c.2-.1.4-.1.5-.2l.6.1c.1.1.2.1.4.1h.2l.2.1h.3l.2.1h.4l.3.2.2.1V1.6A2.22,2.22,0,0,1,7,2.1l.7.3.3.3h.2l.3.6-.1.3-.1.1h0v.1H8.2A.22.22,0,0,0,8,4H7.7v.1c0,.2-.1.2-.2.2H7.2v.1a.1.1,0,0,1-.1.1H7L6,4.8v.1H5.7l-.2.2H5.3a.86.86,0,0,1-.6.3H4.4l-.1.1a1.42,1.42,0,0,0-.6.2H3.4L3,6a.35.35,0,0,1-.1-.2L3,5.7H3V5.4l.1-.3h0L3,4.7l.1-.4h0L3,4l.2-.2h0V3.3l.1-.1.1-.1L3.3,3l-.2-.4a1,1,0,0,1,.1-.4c.1-.2.2-.3.2-.5,0-.4-.3-.5-.7-.5-.1,0-.2,0-.2.1a.31.31,0,0,0-.1.2v.2H2.3L2.2,2h0V3l-.1.4v.8L2,4.3H2L1.9,5.4l-.1.2h0v.3c-.1,0-.1,0-.2.1h0l-.9.5.4.5.7.1.1.1v.2h0l.1.3-.1.1-.2.1.2.4V9h0l.3.7.2.5.1.1.4-.1H3a.6.6,0,0,0,.4-.1c.1-.1.2-.2.1-.3s-.1-.2-.1-.3H3.1V9.3h0L3,9.1V8.8H3l-.1-.2H3l-.1-.5L3,7.7H3l-.3-.5L2.8,7c.1,0,.2-.1.4-.2l.2-.1.1-.1h.4l.1.1.1-.1a.31.31,0,0,0,.1-.2h.3l.1-.1.7-.1L5.5,6h.4l.2-.1c.1,0,.1,0,.1-.1V5.7h.1l.2-.2h.4V5.4a.91.91,0,0,0,.7-.3,1.51,1.51,0,0,0,.8-.4C8.7,4.7,8.8,4.7,8.9,4.6Z" style="fill:#565655"/><path d="M1.4,15.7c-.5,0-.7,0-.8-.1s-.1-.2-.1-.4a.52.52,0,0,1,.2-.4c.1-.1.4-.1.8-.1s.6,0,.7.1.1.2.1.4h.4a.85.85,0,0,0-.2-.6,2.51,2.51,0,0,0-1-.1c-.5,0-.9,0-1,.2a.6.6,0,0,0-.3.6c0,.4.3.7.9.7h.8c.2,0,.4,0,.4.1a.37.37,0,0,1,.1.3.76.76,0,0,1-.2.5c-.1.1-.4.1-.8.1s-.6,0-.7-.1-.1-.2-.1-.4v-.1H.2v.1a.85.85,0,0,0,.2.6,2.51,2.51,0,0,0,1,.1,2.53,2.53,0,0,0,1.1-.1.6.6,0,0,0,.3-.6.85.85,0,0,0-.2-.6A4.3,4.3,0,0,0,1.4,15.7Z" style="fill:#565655"/><path d="M9.6,14.5h0a2.87,2.87,0,0,0-1.2.2.78.78,0,0,0-.3.7v.4a2,2,0,0,0,.2,1.1,2.87,2.87,0,0,0,1.2.2h0a3.09,3.09,0,0,0,1.3-.2c.2-.1.2-.5.2-1.2a2.33,2.33,0,0,0-.2-1.1A8.37,8.37,0,0,0,9.6,14.5Zm1.1,1.4c0,.5,0,.9-.1.9s-.4.1-1,.1h0c-.6,0-.9,0-1-.1s-.1-.4-.1-.9,0-.9.1-.9.4-.1,1-.1h0c.5,0,.8,0,.9.1a.85.85,0,0,1,.2.6v.3Z" style="fill:#565655"/><polygon points="17.2 14.5 16.8 14.5 16.8 17.2 19 17.2 19 16.9 17.2 16.9 17.2 14.5" style="fill:#565655"/><path d="M27,16.4a.59.59,0,0,1-.2.5c-.1.1-.4.1-.9.1s-.7,0-.8-.1a.59.59,0,0,1-.2-.5V14.6h-.4v1.9a.6.6,0,0,0,.3.6,2.68,2.68,0,0,0,1.1.2,2.33,2.33,0,0,0,1.1-.2c.2-.1.3-.3.3-.7V14.6h-.4v1.8Z" style="fill:#565655"/><path d="M48.9,14.5a2.87,2.87,0,0,0-1.2.2.78.78,0,0,0-.3.7v.4a2,2,0,0,0,.2,1.1,4.32,4.32,0,0,0,2.6,0c.2-.1.2-.5.2-1.2a1.44,1.44,0,0,0-.3-1.1A8.37,8.37,0,0,0,48.9,14.5ZM50,15.9c0,.5,0,.9-.1.9s-.4.1-1,.1h0c-.6,0-.9,0-1-.1s-.1-.4-.1-.9,0-.9.1-.9.4-.1,1-.1h0c.5,0,.8,0,.9.1a.85.85,0,0,1,.2.6v.3Z" style="fill:#565655"/><path d="M67.3,15.8a4.07,4.07,0,0,0-1-.2c-.5,0-.7,0-.8-.1s-.1-.2-.1-.4a.52.52,0,0,1,.2-.4c.1-.1.4-.1.8-.1s.6,0,.7.1.1.2.1.4h.4a.85.85,0,0,0-.2-.6,2.51,2.51,0,0,0-1-.1c-.5,0-.9,0-1,.2a.6.6,0,0,0-.3.6c0,.4.3.7.9.7h.8c.2,0,.4,0,.4.1a.37.37,0,0,1,.1.3.76.76,0,0,1-.2.5c-.1.1-.4.1-.8.1s-.6,0-.7-.1-.1-.2-.1-.4v-.1h-.4v.1a.85.85,0,0,0,.2.6,5.55,5.55,0,0,0,2.1,0,.6.6,0,0,0,.3-.6A5.92,5.92,0,0,0,67.3,15.8Z" style="fill:#565655"/><polygon points="58.7 16.5 58.7 16.7 58.7 16.8 58.7 16.9 58.7 16.9 58.5 16.7 58.4 16.5 58 16.1 56.7 14.5 56.1 14.5 56.1 17.2 56.5 17.2 56.5 15.2 56.5 15 56.5 14.9 56.5 14.8 56.5 14.8 56.6 14.9 56.7 15.1 57 15.4 58.4 17.2 59.1 17.2 59.1 14.5 58.7 14.5 58.7 16.5" style="fill:#565655"/><rect x="41.3" y="14.5" width="0.4" height="2.6" style="fill:#565655"/><polygon points="33 14.8 34.2 14.8 34.2 17.2 34.6 17.2 34.6 14.8 35.7 14.8 35.7 14.5 33 14.5 33 14.8" style="fill:#565655"/></g></g></svg>