<svg id="Layer_1" data-name="Layer 1" xmlns="http://www.w3.org/2000/svg" xmlns:xlink="http://www.w3.org/1999/xlink" viewBox="0 0 100 100"><defs><style>.cls-1{fill:none;}.cls-2{clip-path:url(#clip-path);}.cls-3{fill:#29a1d5;}.cls-3,.cls-4{fill-rule:evenodd;}.cls-4{fill:#fff;}</style><clipPath id="clip-path" transform="translate(0 0)"><rect class="cls-1" width="100" height="100"/></clipPath></defs><title>icons_telegram</title><g class="cls-2"><path class="cls-3" d="M90,100H10A10,10,0,0,1,0,90V10A10,10,0,0,1,10,0H90a10,10,0,0,1,10,10V90a10,10,0,0,1-10,10" transform="translate(0 0)"/></g><g class="cls-2"><path class="cls-4" d="M50,10A40,40,0,1,1,10,50,40,40,0,0,1,50,10" transform="translate(0 0)"/></g><g class="cls-2"><path class="cls-3" d="M42.26,59.11,62.77,40.58c.88-.88-.22-1.1-1.32-.44L36.31,56,25.5,52.71c-2.43-.66-2.43-2.43.44-3.53L68.5,32.86c2-.88,3.75.44,3.09,3.53L64.31,70.57c-.44,2.43-2,3.09-4,2l-11-8.16L44,69.47c-.66.66-1.54.66-1.54,0Z" transform="translate(0 0)"/></g></svg>