<svg id="Layer_1" data-name="Layer 1" xmlns="http://www.w3.org/2000/svg" xmlns:xlink="http://www.w3.org/1999/xlink" viewBox="0 0 149.62 172.17"><defs><style>.cls-1,.cls-2,.cls-5{fill:none;}.cls-2{stroke:#869098;stroke-width:3px;}.cls-2,.cls-5{stroke-miterlimit:10;}.cls-3{clip-path:url(#clip-path);}.cls-4{fill:#2f353c;}.cls-5{stroke:#2f353c;stroke-width:4.2px;}</style><clipPath id="clip-path" transform="translate(-25.45 -14.96)"><rect class="cls-1" width="200" height="200"/></clipPath></defs><title>why3</title><line class="cls-2" x1="62.07" y1="114.09" x2="7.94" y2="168.22"/><line class="cls-2" x1="70.91" y1="17.4" x2="54.23" y2="62.57"/><line class="cls-2" x1="87.24" y1="21.13" x2="69.7" y2="70.95"/><line class="cls-2" x1="100.98" y1="36.3" x2="89.92" y2="67.87"/><line class="cls-2" x1="147.52" y1="121.14" x2="98.58" y2="170.08"/><line class="cls-2" x1="128.83" y1="92.54" x2="51.46" y2="169.91"/><line class="cls-2" x1="39.74" y1="92.54" x2="1.58" y2="130.7"/><g class="cls-3"><path class="cls-4" d="M102.91,19.16l.59.08,2,.26a41.72,41.72,0,0,1,36.37,36.18c.08.62.17,1.24.27,1.85l.07.49v4.26c-.14.69-.27,1.39-.4,2.09-.32,1.72-.62,3.35-1.06,4.89-2,7.11-5.4,14.35-10.58,22.79-5.79,9.45-11.76,19-17.53,28.27q-4.2,6.71-8.37,13.43c-1.86,3-3.7,6-5.55,9q-1.61-2.72-3.2-5.43-5.17-8.76-10.31-17.51c-1.4-2.4-2.82-4.78-4.23-7.17-3.88-6.56-7.89-13.34-11.6-20.1a105.8,105.8,0,0,1-9.84-24.3c-.33-1.28-.58-2.62-.84-4-.1-.56-.2-1.11-.31-1.66V58l.12-.92c.11-.83.22-1.65.34-2.47A41.63,41.63,0,0,1,92.44,19.9c1.14-.21,2.3-.37,3.53-.54l1.45-.2h5.49m-2.84,71.09h0A30.62,30.62,0,0,0,100.16,29H100a30.62,30.62,0,0,0,.09,61.23M103.19,15H97.11c-1.81.27-3.63.48-5.43.81a46,46,0,0,0-37,38.2c-.19,1.25-.34,2.49-.51,3.74v5.21c.42,2.11.74,4.26,1.28,6.35A110.61,110.61,0,0,0,65.66,94.52c5.06,9.25,10.55,18.28,15.88,27.38q8.2,14,16.45,27.93a7.71,7.71,0,0,1,.43,1h.21c3.06-5,6.1-9.9,9.17-14.84,8.64-13.9,17.35-27.76,25.91-41.71,4.6-7.5,8.6-15.32,11-23.83.73-2.52,1.1-5.15,1.63-7.72v-5c-.12-.85-.26-1.7-.37-2.55a45.89,45.89,0,0,0-40-39.83c-.93-.11-1.85-.25-2.78-.37m-3.12,71.09A26.42,26.42,0,0,1,100,33.21h.15a26.42,26.42,0,0,1,0,52.83Z" transform="translate(-25.45 -14.96)"/><path class="cls-5" d="M123.21,107.5h38.28A11.48,11.48,0,0,1,173,119v54.57A11.48,11.48,0,0,1,161.49,185H39a11.48,11.48,0,0,1-11.48-11.48V119A11.48,11.48,0,0,1,39,107.5H74.52" transform="translate(-25.45 -14.96)"/></g></svg>