<svg id="Layer_1" data-name="Layer 1" xmlns="http://www.w3.org/2000/svg" xmlns:xlink="http://www.w3.org/1999/xlink" viewBox="0 0 193.7 178.93"><defs><style>.cls-1{fill:none;}.cls-2{clip-path:url(#clip-path);}.cls-3{fill:#fff;}.cls-3,.cls-4{fill-rule:evenodd;}.cls-4{fill:#4cae32;}</style><clipPath id="clip-path" transform="translate(-53.15 -12.24)"><rect class="cls-1" width="300" height="300"/></clipPath></defs><title>favicons</title><g class="cls-2"><path class="cls-3" d="M228,77h18.85L231.44,93.92l.17,4.41c0,1.27.08,2.53.08,3.8a86.68,86.68,0,0,1-12.07,44.7,89.67,89.67,0,0,1-32.52,32.44c-16.93,9.8-35.58,13.53-55.71,11.26a81.34,81.34,0,0,1-24.29-6.66,90.88,90.88,0,0,1-41.8-37,86.29,86.29,0,0,1-12.15-44.75A88.71,88.71,0,0,1,65.13,57a89,89,0,0,1,77.51-44.71,87.08,87.08,0,0,1,44.58,12A88.52,88.52,0,0,1,219.75,57a89.81,89.81,0,0,1,8.5,20m-29.2,50.25h0m-2.48-.08-1,0,1,0" transform="translate(-53.15 -12.24)"/><path class="cls-4" d="M228,77h18.85L231.44,93.92l.17,4.41c0,1.27.08,2.53.08,3.8a86.68,86.68,0,0,1-12.07,44.7,89.67,89.67,0,0,1-32.52,32.44c-16.93,9.8-35.58,13.53-55.71,11.26a81.34,81.34,0,0,1-24.29-6.66,90.88,90.88,0,0,1-41.8-37,86.29,86.29,0,0,1-12.15-44.75A88.71,88.71,0,0,1,65.13,57a89,89,0,0,1,77.51-44.71,87.08,87.08,0,0,1,44.58,12A88.52,88.52,0,0,1,219.75,57a89.81,89.81,0,0,1,8.5,20M108.55,65.1,109,68l7.29,50.47c.52,3.55,3.56,4.13,6.38,2.19L143,106.81l17.33,6,16.5,26.65,6.38-6.72-20.07-24.58-17.57-3.14,15.56-10.63c5.45-3.73,8.26-6.69,1.84-10.3L119.64,60l-2.34-1.38c-6-3.25-9.74.14-8.75,6.52m33.76-48.94A83.34,83.34,0,0,0,99.59,27.55L99,27.9h0l-.59.35h0l-.59.36-1.19.74h0l-.55.36,0,0-.55.35,0,0-.55.37,0,0-.53.36-.08.05-.47.33-.11.07-.46.32-.11.08-.43.31-.18.12-.37.27-.2.14-.36.27L91.3,33l-.36.27-.24.18-.29.22-.26.2-.26.2-.33.26-.18.14-.4.32-.12.09-.39.32-.15.12-.06,0A85.57,85.57,0,0,0,57.17,101.7a81.87,81.87,0,0,0,11.54,42.54A85.5,85.5,0,0,0,99.89,175a84.78,84.78,0,0,0,84.7.05,85.27,85.27,0,0,0,30.95-30.89,82,82,0,0,0,8.22-19h0a82.67,82.67,0,0,0,2.48-11.86v0l.09-.68v0c0-.21.05-.42.07-.62l0-.13.06-.54,0-.21,0-.31c0-.14,0-.28,0-.41l0-.31c0-.15,0-.3,0-.44l0-.24c0-.16,0-.32,0-.49s0-.15,0-.22,0-.3,0-.45V108c0-.16,0-.32,0-.48v-.21l0-.5v-.14l0-.58v-.14l0-.58v-.14l0-.58v-.15c0-.19,0-.38,0-.57v-.13c0-.21,0-.41,0-.62v-.08l1-.64v-.84c0-1.25,0-2.5-.07-3.73L214.42,112.7,201,100.37c0,.37,0,.73,0,1.1,0,.16,1,.57,1,.57v.15a4.83,4.83,0,0,0-1,.33v.17a.43.43,0,0,1,.08.3v.17c0,.1,0,.2,0,.3v.64c0,.15,0,.3,0,.45v.18l0,.29v.44l0,.24c0,.08,0,.16,0,.23l0,.22c0,.09,0,.18,0,.27a1.09,1.09,0,0,0,0,.18l0,.34,0,.29,0,.26a1.8,1.8,0,0,0,0,.22l0,.24c0,.07,0,.14,0,.2l0,.26a1.64,1.64,0,0,1,0,.22l0,.22a1.8,1.8,0,0,0,0,.22l0,.2c0,.18-.05.36-.07.54l0,.13,0,.26,0,.18a2,2,0,0,1,0,.26l0,.18a2.7,2.7,0,0,1,0,.28l0,.13-.05.32v.07c-.09.51-.18,1-.28,1.53v0c0,.12-.05.25-.07.37v0c0,.12,0,.25-.07.37v0A57.5,57.5,0,0,1,193,131.43a59.71,59.71,0,0,1-21.75,21.7,59.56,59.56,0,0,1-59.51,0,60,60,0,0,1-21.9-21.64,57.48,57.48,0,0,1-8.11-29.89,60.18,60.18,0,0,1,22.32-47l0,0,.67-.52.11-.09.3-.23.15-.11.18-.14.16-.12.24-.17.19-.15.17-.12.22-.16.21-.14.19-.14.15-.11.3-.21.13-.09.24-.16.11-.08.32-.21.12-.09.29-.18.11-.08.3-.19.11-.08.34-.21.09-.05.3-.2.08-.05.36-.22.09,0a3.79,3.79,0,0,1,.34-.2l0,0,.38-.23.09,0,.38-.22a59.48,59.48,0,0,1,81.53,21.9A57.36,57.36,0,0,1,197.55,81H186.17l27.7,25.34L237,81H224.9A85.58,85.58,0,0,0,185,27.63a82.67,82.67,0,0,0-42.39-11.39m56.41,111h0m-2.48-.08-1,0,1,0" transform="translate(-53.15 -12.24)"/></g></svg>